<svg id="Layer_1" data-name="Layer 1" xmlns="http://www.w3.org/2000/svg" viewBox="0 0 1920 1080"><defs><style>.cls-1{fill:#d4dbe4;}.cls-2{fill:#dce442;}</style></defs><title>bg-one</title><polygon id="_Path_" data-name="&lt;Path&gt;" class="cls-1" points="0 0.01 0 539.99 0 540.01 0 1079.99 1920 1079.99 1920 540.01 1920 539.99 1920 0.01 0 0.01"/><g id="_Group_" data-name="&lt;Group&gt;"><path id="_Path_2" data-name="&lt;Path&gt;" class="cls-2" d="M0,1080H30a272.87,272.87,0,0,1-30-1.67Z" transform="translate(0 0)"/><path id="_Path_3" data-name="&lt;Path&gt;" class="cls-2" d="M30,540c149.12,0,270,120.88,270,270V540Z" transform="translate(0 0)"/><path id="_Path_4" data-name="&lt;Path&gt;" class="cls-2" d="M30,540H0v1.67A272.83,272.83,0,0,1,30,540Z" transform="translate(0 0)"/><path id="_Path_5" data-name="&lt;Path&gt;" class="cls-2" d="M30,1080H300V810C300,959.11,179.12,1080,30,1080Z" transform="translate(0 0)"/></g><circle id="_Path_6" data-name="&lt;Path&gt;" class="cls-2" cx="1380" cy="540" r="540"/></svg>