<?xml version="1.0" standalone="no"?>
<!DOCTYPE svg PUBLIC "-//W3C//DTD SVG 1.1//EN" "http://www.w3.org/Graphics/SVG/1.1/DTD/svg11.dtd" >
<svg>
<metadata>
Created by FontForge 20090622 at Thu Mar 16 17:34:41 2017
 By deploy user
Copyright (c) Laurenz Brunner. www.lineto.com, 2004. All rights reserved.
</metadata>
<defs>
<font id="Akkurat-Light" horiz-adv-x="568" >
  <font-face 
    font-family="Akkurat Light"
    font-weight="300"
    font-stretch="normal"
    units-per-em="1000"
    panose-1="0 0 0 0 0 0 0 0 0 0"
    ascent="762"
    descent="-238"
    x-height="500"
    cap-height="709"
    bbox="-18 -281 1081 940"
    underline-thickness="50"
    underline-position="-50"
    unicode-range="U+0020-U+FB02"
  />
<missing-glyph horiz-adv-x="588" 
d="M88 0v698h412v-698h-412zM163 74h262v549h-262v-549z" />
    <glyph glyph-name=".notdef" horiz-adv-x="588" 
d="M88 0v698h412v-698h-412zM163 74h262v549h-262v-549z" />
    <glyph glyph-name=".null" horiz-adv-x="0" 
 />
    <glyph glyph-name="nonmarkingreturn" horiz-adv-x="333" 
 />
    <glyph glyph-name="space" unicode=" " horiz-adv-x="215" 
 />
    <glyph glyph-name="exclam" unicode="!" horiz-adv-x="307" 
d="M198 515l-14 -288h-34l-14 288v194h62v-194zM206 0h-76v76h76v-76z" />
    <glyph glyph-name="quotedbl" unicode="&#x22;" horiz-adv-x="438" 
d="M308 585l-15 -152h-32l-14 152v124h61v-124zM157 585l-15 -152h-32l-14 152v124h61v-124z" />
    <glyph glyph-name="numbersign" unicode="#" horiz-adv-x="765" 
d="M687 452h-137l-29 -209h133v-45h-140l-28 -198h-44l28 198h-216l-28 -198h-45l28 198h-126v45h133l29 209h-129v45h136l28 198h44l-28 -198h216l28 198h45l-28 -198h130v-45zM506 452h-216l-30 -209h216z" />
    <glyph glyph-name="dollar" unicode="$" 
d="M523 202q0 -79 -56 -133q-60 -60 -162 -66v-91h-41v91q-109 7 -170 72q-61 66 -61 154h50q0 -74 51 -125q47 -50 130 -55v293l-45 6q-74 10 -120 53t-46 119q0 74 60 127q61 55 151 60v93h41v-94q93 -11 146 -67q57 -60 61 -141h-50q-4 64 -48 112q-39 41 -109 49v-270
l47 -6q81 -11 126 -57.5t45 -123.5zM264 394v267q-73 -5 -114 -41q-47 -40 -47 -100q0 -106 121 -121zM473 202q0 114 -127 130l-41 5v-288q78 6 125 52q43 41 43 101z" />
    <glyph glyph-name="percent" unicode="%" horiz-adv-x="925" 
d="M852 172q0 -77 -33 -125q-44 -61 -119 -61t-119 61q-33 48 -33 125t33 125q44 61 119 61q77 0 119 -61q33 -48 33 -125zM736 694l-518 -706l-35 27l517 704zM372 536q0 -77 -33 -125q-44 -61 -119 -61q-76 0 -120 61q-32 47 -32 125t32 125q44 61 119 61q78 0 120 -61
q33 -48 33 -125zM806 172q0 63 -26 102t-80 39t-80.5 -39t-26.5 -102t26.5 -102t80.5 -39t80 39t26 102zM326 536q0 63 -26.5 102t-80.5 39t-80 -39t-26 -102t26.5 -102t80.5 -39t80 39t26 102z" />
    <glyph glyph-name="ampersand" unicode="&#x26;" horiz-adv-x="719" 
d="M667 352h-76q0 -153 -51 -228l111 -124h-64l-74 84q-83 -98 -213 -98q-89 0 -149.5 55t-60.5 145q0 110 97 167l56 33l-52 58q-49 55 -49 121q0 67 47.5 112.5t119.5 45.5t121 -43.5t49 -114.5q0 -94 -87 -146l-74 -44l188 -213q37 66 37 192v43h124v-45zM430 565
q0 50 -34 81t-87 31q-49 0 -83 -31t-34 -81q0 -47 42 -96l52 -60l81 50q63 39 63 106zM478 122l-203 228l-56 -33q-78 -45 -78 -131q0 -66 46 -108t113 -42q108 0 178 86z" />
    <glyph glyph-name="quotesingle" unicode="'" horiz-adv-x="241" 
d="M151 585l-15 -152h-32l-14 152v124h61v-124z" />
    <glyph glyph-name="parenleft" unicode="(" horiz-adv-x="291" 
d="M271 -104l-31 -24q-78 89 -121.5 210.5t-43.5 240.5q0 120 43 241t122 210l31 -24q-149 -191 -149 -427t149 -427z" />
    <glyph glyph-name="parenright" unicode=")" horiz-adv-x="291" 
d="M216 323q0 -120 -43 -242.5t-122 -208.5l-31 24q149 191 149 427t-149 427l31 24q79 -87 122 -208.5t43 -242.5z" />
    <glyph glyph-name="asterisk" unicode="*" horiz-adv-x="534" 
d="M471 532l-173 -52l108 -143l-38 -28l-102 149l-102 -149l-38 28l110 143l-173 52l14 45l171 -60l-5 180h47l-4 -180l170 60z" />
    <glyph glyph-name="plus" unicode="+" horiz-adv-x="683" 
d="M610 280h-245v-275h-47v275h-245v45h245v257h47v-257h245v-45z" />
    <glyph glyph-name="comma" unicode="," horiz-adv-x="269" 
d="M181 90v-91q0 -86 -76 -122l-17 28q32 17 44 37.5t12 57.5h-55v90h92z" />
    <glyph glyph-name="hyphen" unicode="-" horiz-adv-x="433" 
d="M358 279h-283v46h283v-46z" />
    <glyph glyph-name="period" unicode="." horiz-adv-x="264" 
d="M176 0h-88v90h88v-90z" />
    <glyph glyph-name="slash" unicode="/" horiz-adv-x="396" 
d="M384 722l-313 -735h-46l313 735h46z" />
    <glyph glyph-name="zero" unicode="0" 
d="M507 348q0 -226 -82 -305q-58 -56 -141 -56t-141 56q-82 79 -82 305t82 305q58 56 141 56t141 -56q82 -79 82 -305zM456 348q0 60 -2.5 99.5t-18 92.5t-44.5 81q-42 40 -107 40t-107 -40q-29 -28 -44.5 -81t-18 -92.5t-2.5 -99.5t2.5 -99.5t18 -92.5t44.5 -81
q42 -40 107 -40t107 40q29 28 44.5 81t18 92.5t2.5 99.5z" />
    <glyph glyph-name="one" unicode="1" 
d="M343 0h-50v633l-173 -127v56l178 133h45v-695z" />
    <glyph glyph-name="two" unicode="2" 
d="M502 0h-403v54l278 347q56 70 56 134q0 58 -38.5 92t-97.5 34q-70 0 -108 -43.5t-38 -114.5h-53q0 91 54 148.5t145 57.5q82 0 134 -47t52 -127t-68 -163l-260 -324h347v-48z" />
    <glyph glyph-name="three" unicode="3" 
d="M488 182q0 -86 -62.5 -140.5t-152.5 -54.5q-97 0 -154 60t-59 155h51q0 -72 42.5 -119.5t119.5 -47.5q75 0 119 39.5t44 107.5q0 76 -43.5 116t-120.5 40h-37v48h37q70 0 109.5 36t39.5 104q0 60 -42 97.5t-103 37.5q-72 0 -115.5 -43t-44.5 -114h-52q2 92 61 148.5
t151 56.5q83 0 140 -50.5t57 -132.5q0 -59 -29 -103t-84 -61q60 -18 94 -67t34 -113z" />
    <glyph glyph-name="four" unicode="4" 
d="M530 159h-97v-159h-51v159h-328v55l283 481h57l-286 -486h274v215h51v-215h97v-50z" />
    <glyph glyph-name="five" unicode="5" 
d="M508 218q0 -103 -55 -167.5t-159 -64.5q-96 0 -155.5 61t-61.5 154h51q4 -76 47.5 -121.5t118.5 -45.5q80 0 121.5 49.5t41.5 134.5q0 81 -39 132.5t-116 51.5q-102 0 -149 -76h-62l16 369h378v-47h-330l-14 -276q48 77 161 77q100 0 153 -64t53 -167z" />
    <glyph glyph-name="six" unicode="6" 
d="M511 220q0 -99 -58 -166t-157 -67q-104 0 -164 85q-61 88 -61 277q0 209 76 294q60 66 148 66q84 0 139.5 -50t59.5 -131h-52q-4 61 -43 97t-104 36q-68 0 -110 -47q-62 -67 -62 -272q21 49 67.5 79t104.5 30q101 0 158.5 -63.5t57.5 -167.5zM460 220q0 78 -41.5 131.5
t-122.5 53.5q-61 0 -106 -42q-53 -51 -53 -141q0 -77 42 -132t118 -55q81 0 122 53.5t41 131.5z" />
    <glyph glyph-name="seven" unicode="7" 
d="M489 642l-299 -642h-54l302 647h-383v48h434v-53z" />
    <glyph glyph-name="eight" unicode="8" 
d="M503 183q0 -90 -64 -143t-156 -53t-155 53t-63 143q0 60 33.5 110t89.5 70q-48 19 -77.5 64t-29.5 97q0 85 58 135t146 50q87 0 144.5 -50t57.5 -135q0 -52 -29.5 -97t-77.5 -64q56 -20 89.5 -70t33.5 -110zM435 526q0 65 -43 101.5t-109 36.5q-65 0 -107.5 -36.5
t-42.5 -101.5q0 -67 42.5 -104t109.5 -37q66 0 108 37t42 104zM451 186q0 72 -47.5 113.5t-120.5 41.5t-119.5 -41.5t-46.5 -113.5t47.5 -112.5t120.5 -40.5t119.5 40.5t46.5 112.5z" />
    <glyph glyph-name="nine" unicode="9" 
d="M496 347q0 -102 -13.5 -176t-56.5 -122q-57 -62 -148 -62q-84 0 -140.5 50t-60.5 131h52q4 -61 44 -97t105 -36q72 0 110 43q27 29 40 85.5t14.5 91t1.5 99.5q-22 -49 -67 -79t-103 -30q-101 0 -158.5 63.5t-57.5 167.5q0 99 58 166t157 67q54 0 97 -24t69 -60
q57 -80 57 -278zM432 474q0 77 -42 132t-118 55q-81 0 -122 -53.5t-41 -131.5t41.5 -131.5t122.5 -53.5q61 0 106 42q53 51 53 141z" />
    <glyph glyph-name="colon" unicode=":" horiz-adv-x="289" 
d="M193 414h-83v86h83v-86zM193 0h-83v86h83v-86z" />
    <glyph glyph-name="semicolon" unicode=";" horiz-adv-x="289" 
d="M197 414h-83v86h83v-86zM199 86v-87q0 -82 -73 -116l-16 27q31 17 42.5 36t11.5 54h-53v86h88z" />
    <glyph glyph-name="less" unicode="&#x3c;" horiz-adv-x="488" 
d="M413 7l-30 -30l-328 327l327 327l30 -31l-296 -296z" />
    <glyph glyph-name="equal" unicode="=" horiz-adv-x="693" 
d="M580 373h-467v46h467v-46zM580 136h-467v46h467v-46z" />
    <glyph glyph-name="greater" unicode="&#x3e;" horiz-adv-x="488" 
d="M433 304l-328 -327l-30 30l297 297l-296 296l30 31z" />
    <glyph glyph-name="question" unicode="?" horiz-adv-x="488" 
d="M458 542q0 -111 -106 -178q-51 -32 -66.5 -62.5t-15.5 -93.5h-52q0 77 23 117t89 85q72 50 72 129q0 62 -40 98.5t-105 36.5q-78 0 -120 -41t-42 -118h-55q0 95 60 152.5t157 57.5q93 0 150 -59q51 -54 51 -124zM284 0h-79v78h79v-78z" />
    <glyph glyph-name="at" unicode="@" horiz-adv-x="934" 
d="M862 381q0 -48 -11.5 -95t-34 -87t-60.5 -64.5t-85 -24.5q-34 0 -59 22t-31 57q-18 -34 -55 -55.5t-75 -21.5q-73 0 -114.5 51t-41.5 125q0 87 50.5 152.5t135.5 65.5q81 0 110 -66l13 57h37l-20 -264q-3 -36 11.5 -58t43.5 -22q65 0 102 68t37 160q0 137 -91 216
t-231 79q-163 0 -261.5 -103t-98.5 -267q0 -147 93.5 -248t239.5 -101q140 0 253 49v-47q-113 -48 -256 -48q-168 0 -273.5 113t-105.5 282q0 185 112 300.5t297 115.5q158 0 263.5 -92.5t105.5 -248.5zM582 330q0 58 -26 95.5t-82 37.5q-60 0 -95.5 -54t-35.5 -121
q0 -59 28.5 -96.5t81.5 -37.5q64 0 96.5 54.5t32.5 121.5z" />
    <glyph glyph-name="A" unicode="A" horiz-adv-x="608" 
d="M600 0h-53l-72 187h-343l-70 -187h-54l269 709h51zM456 236l-154 401l-151 -401h305z" />
    <glyph glyph-name="B" unicode="B" horiz-adv-x="660" 
d="M602 196q0 -95 -65 -147q-61 -49 -178 -49h-251v709h251q99 0 154 -38q34 -23 53.5 -59.5t19.5 -76.5q0 -134 -113 -166q63 -15 96 -62t33 -111zM533 531q0 69 -50 99t-124 30h-199v-265h199q83 0 128.5 29t45.5 107zM549 200q0 81 -51 113t-139 32h-199v-296h199
q190 0 190 151z" />
    <glyph glyph-name="C" unicode="C" horiz-adv-x="623" 
d="M526 217h54q-8 -100 -78 -165t-174 -65q-110 0 -187 77q-51 53 -67 124t-16 167t16 167t67 123q74 77 187 77q104 0 174 -65t78 -165h-54q-6 79 -60.5 129t-137.5 50q-91 0 -149 -61q-30 -31 -46 -79.5t-18.5 -84t-2.5 -91.5q0 -54 3 -91.5t19 -85.5t46 -79
q58 -61 148 -61q83 0 137.5 50t60.5 129z" />
    <glyph glyph-name="D" unicode="D" horiz-adv-x="666" 
d="M608 355q0 -92 -17 -163.5t-69 -121.5q-73 -70 -179 -70h-235v709h235q106 0 179 -70q52 -51 69 -121.5t17 -162.5zM555 355q0 83 -13.5 145.5t-57.5 104.5q-55 53 -141 53h-183v-607h183q86 0 141 53q44 43 57.5 105.5t13.5 145.5z" />
    <glyph glyph-name="E" unicode="E" horiz-adv-x="616" 
d="M562 0h-454v709h454v-50h-401v-260h353v-50h-353v-299h401v-50z" />
    <glyph glyph-name="F" unicode="F" horiz-adv-x="582" 
d="M552 659h-392v-274h353v-50h-353v-335h-52v709h444v-50z" />
    <glyph glyph-name="G" unicode="G" horiz-adv-x="678" 
d="M596 0h-39l-11 109q-28 -56 -85 -89t-122 -33q-112 0 -187 75q-90 90 -90 292q0 203 90 291q79 77 187 77t178 -59t78 -152h-53q-5 61 -47 106q-50 54 -155 54q-87 0 -147 -58q-77 -75 -77 -259q0 -186 78 -261q58 -55 145 -55q91 0 142 56q39 42 50.5 95t11.5 127h-209
v51h262v-367z" />
    <glyph glyph-name="H" unicode="H" horiz-adv-x="716" 
d="M608 0h-52v348h-396v-348h-52v709h52v-310h396v310h52v-709z" />
    <glyph glyph-name="I" unicode="I" horiz-adv-x="269" 
d="M161 0h-53v709h53v-709z" />
    <glyph glyph-name="J" unicode="J" horiz-adv-x="506" 
d="M411 709v-510q0 -99 -53 -155q-54 -57 -143 -57q-80 0 -133 50q-65 59 -67 178h53q0 -96 50 -143q35 -34 97 -34q70 0 106 39q38 39 38 121v511h52z" />
    <glyph glyph-name="K" unicode="K" horiz-adv-x="655" 
d="M639 0h-59l-235 405l-184 -208v-197h-53v709h53v-437l390 437h64l-235 -265z" />
    <glyph glyph-name="L" unicode="L" horiz-adv-x="546" 
d="M528 0h-420v709h52v-660h368v-49z" />
    <glyph glyph-name="M" unicode="M" horiz-adv-x="882" 
d="M774 0h-51v634l-259 -624h-46l-259 619v-629h-51v709h73l262 -630l257 630h74v-709z" />
    <glyph glyph-name="N" unicode="N" horiz-adv-x="738" 
d="M630 0h-59l-411 628v-628h-52v709h59l412 -627v627h51v-709z" />
    <glyph glyph-name="O" unicode="O" horiz-adv-x="658" 
d="M600 355q0 -96 -17.5 -170t-71.5 -126q-74 -72 -182 -72t-182 72q-54 52 -71.5 126t-17.5 170t17.5 169.5t71.5 125.5q74 72 182 72t182 -72q54 -52 71.5 -125.5t17.5 -169.5zM546 355q0 56 -3 93t-20.5 87t-49.5 81q-57 55 -144 55t-144 -55q-32 -31 -49.5 -81
t-20.5 -87t-3 -93q0 -55 3 -92.5t20.5 -88t49.5 -81.5q57 -55 144 -55t144 55q32 31 49.5 81.5t20.5 88t3 92.5z" />
    <glyph glyph-name="P" unicode="P" horiz-adv-x="618" 
d="M590 500q0 -103 -64.5 -156t-171.5 -53h-194v-1v-290h-52v709h246q107 0 171.5 -53t64.5 -156zM536 500q0 80 -49.5 119.5t-132.5 39.5h-194v-318h194q83 0 132.5 39.5t49.5 119.5z" />
    <glyph glyph-name="Q" unicode="Q" horiz-adv-x="658" 
d="M600 355q0 -94 -17 -167.5t-68 -124.5l67 -86l-36 -29l-67 85q-66 -46 -150 -46q-108 0 -182 72q-54 52 -71.5 126t-17.5 170t17.5 169.5t71.5 125.5q74 72 182 72t182 -72q54 -52 71.5 -125.5t17.5 -169.5zM546 355q0 56 -3 93t-20.5 87t-49.5 81q-57 55 -144 55
t-144 -55q-32 -31 -49.5 -81t-20.5 -87t-3 -93q0 -55 3 -92.5t20.5 -88t49.5 -81.5q57 -55 144 -55q66 0 119 35l-106 135l36 29l105 -133q28 31 43 79.5t17.5 83.5t2.5 88z" />
    <glyph glyph-name="R" unicode="R" horiz-adv-x="656" 
d="M606 505q0 -69 -40 -120.5t-107 -69.5l144 -315h-57l-139 302h-247v-302h-52v709h259q114 0 176.5 -55t62.5 -149zM552 505q0 75 -48.5 115t-136.5 40h-207v-310h207q88 0 136.5 40t48.5 115z" />
    <glyph glyph-name="S" unicode="S" horiz-adv-x="622" 
d="M569 192q0 -80 -56 -136q-70 -69 -201 -69q-128 0 -198 76q-57 60 -64 141h54q7 -63 52 -109q58 -58 156 -58q105 0 161 53q42 40 42 102q0 52 -37.5 91t-100.5 47l-132 17q-79 10 -126.5 55.5t-47.5 123.5q0 77 62 134q68 62 175 62q57 0 109.5 -21.5t82.5 -56.5
q49 -55 54 -123h-53q-7 51 -39 90q-50 61 -154 61q-86 0 -135 -43q-48 -43 -48 -103q0 -109 125 -124l134 -17q82 -10 133.5 -64.5t51.5 -128.5z" />
    <glyph glyph-name="T" unicode="T" horiz-adv-x="533" 
d="M518 659h-226v-659h-52v659h-225v50h503v-50z" />
    <glyph glyph-name="U" unicode="U" horiz-adv-x="693" 
d="M598 709v-449q0 -122 -64.5 -197.5t-187.5 -75.5t-187 75.5t-64 197.5v449h52v-450q0 -98 50 -160t149 -62q100 0 150 62t50 160v450h52z" />
    <glyph glyph-name="V" unicode="V" horiz-adv-x="573" 
d="M565 709l-254 -709h-49l-254 709h55l225 -634l222 634h55z" />
    <glyph glyph-name="W" unicode="W" horiz-adv-x="862" 
d="M823 709l-149 -709h-57l-187 621l-187 -621h-55l-149 709h49l133 -634l187 623h47l188 -623l131 634h49z" />
    <glyph glyph-name="X" unicode="X" horiz-adv-x="572" 
d="M549 0h-59l-205 317l-206 -317h-56l233 359l-232 350h57l206 -310l206 310h56l-233 -350z" />
    <glyph glyph-name="Y" unicode="Y" horiz-adv-x="545" 
d="M543 709l-245 -428v-281h-51v281l-245 428h56l216 -377l216 377h53z" />
    <glyph glyph-name="Z" unicode="Z" horiz-adv-x="618" 
d="M566 0h-516v56l451 604h-444v49h504v-56l-452 -604h457v-49z" />
    <glyph glyph-name="bracketleft" unicode="[" horiz-adv-x="321" 
d="M286 -115h-176v877h176v-41h-132v-795h132v-41z" />
    <glyph glyph-name="backslash" unicode="\" horiz-adv-x="397" 
d="M372 -13h-47l-313 735h47z" />
    <glyph glyph-name="bracketright" unicode="]" horiz-adv-x="321" 
d="M211 -115h-176v41h132v795h-132v41h176v-877z" />
    <glyph glyph-name="asciicircum" unicode="^" horiz-adv-x="513" 
d="M443 405h-55l-131 267l-132 -267h-55l160 317h55z" />
    <glyph glyph-name="underscore" unicode="_" horiz-adv-x="530" 
d="M497 -43h-464v43h464v-43z" />
    <glyph glyph-name="grave" unicode="`" horiz-adv-x="243" 
d="M205 587l-17 -27l-168 99l27 44z" />
    <glyph glyph-name="a" unicode="a" horiz-adv-x="561" 
d="M513 44v-44q-12 -3 -24 -3q-79 0 -79 98q-19 -51 -69 -79.5t-111 -28.5q-75 0 -123.5 42t-48.5 112q0 65 45.5 104.5t122.5 44.5l184 13v49q0 114 -132 114q-62 0 -101 -28t-43 -82h-50q6 74 59 115.5t135 41.5q57 0 103.5 -22t65.5 -70q13 -34 13 -96v-228
q0 -29 7.5 -41.5t31.5 -12.5q11 0 14 1zM410 231v26l-179 -11q-57 -4 -89.5 -32t-32.5 -73q0 -52 34.5 -80t90.5 -28q87 0 131.5 58.5t44.5 139.5z" />
    <glyph glyph-name="b" unicode="b" horiz-adv-x="584" 
d="M530 249q0 -143 -82 -215q-53 -47 -133 -47q-52 0 -99 28t-67 73l-6 -88h-44v722h50v-306q20 43 67 70t100 27q82 0 136 -52q78 -75 78 -212zM479 250q0 111 -56 170q-41 44 -107 44q-64 0 -105 -39q-63 -58 -63 -175q0 -111 64 -174q42 -40 102 -40q61 0 99 35
q66 58 66 179z" />
    <glyph glyph-name="c" unicode="c" horiz-adv-x="512" 
d="M415 158h53q-10 -74 -63.5 -122.5t-131.5 -48.5q-88 0 -147 59q-70 70 -70 204t70 204q59 59 147 59q77 0 131 -46.5t62 -122.5h-52q-8 53 -46.5 86.5t-94.5 33.5q-68 0 -111 -43q-55 -57 -55 -171q0 -115 55 -172q40 -42 111 -42q56 0 94.5 34.5t47.5 87.5z" />
    <glyph glyph-name="d" unicode="d" horiz-adv-x="584" 
d="M485 0h-44l-6 88q-20 -45 -67 -73t-99 -28q-80 0 -133 47q-82 72 -82 215q0 137 78 212q54 52 136 52q53 0 100 -27t67 -70v306h50v-722zM436 250q0 117 -63 175q-41 39 -105 39q-66 0 -107 -44q-56 -59 -56 -170q0 -121 66 -179q38 -35 99 -35q60 0 102 40q64 63 64 174
z" />
    <glyph glyph-name="e" unicode="e" horiz-adv-x="539" 
d="M489 271q0 -6 -0.5 -16.5t-0.5 -16.5h-382q1 -88 52 -150q45 -53 121 -53q67 0 109 44q28 28 38 71h52q-10 -60 -56 -105q-58 -58 -143 -58q-97 0 -159 71q-64 75 -64 190q0 111 49 178q65 87 170 87q97 0 155.5 -71.5t58.5 -170.5zM107 284h331q-2 76 -46 129t-117 53
q-75 0 -121.5 -52.5t-46.5 -129.5z" />
    <glyph glyph-name="f" unicode="f" horiz-adv-x="351" 
d="M349 722v-45q-40 6 -72 6q-95 0 -95 -97v-86h157v-46h-157v-454h-50v454h-100v46h100v88q0 60 37 100t104 40q40 0 76 -6z" />
    <glyph glyph-name="g" unicode="g" horiz-adv-x="533" 
d="M514 -75q0 -55 -38 -93q-58 -59 -198 -59q-128 0 -186 58q-35 35 -35 90q0 36 20 68t55 49q-26 8 -44.5 32t-18.5 50q0 60 60 95q-50 50 -50 123q0 79 53 127t134 48q67 0 117 -34q9 31 37.5 49.5t63.5 18.5q4 0 10 -1t9 -1v-43q-3 0 -9 1t-10 1q-58 0 -69 -54
q40 -46 40 -112q0 -79 -54 -126t-135 -47q-56 0 -100 23q-50 -20 -50 -62q0 -33 35 -47q22 -8 67 -8h109q99 0 147 -49q40 -40 40 -97zM405 338q0 59 -39.5 94.5t-99.5 35.5t-99 -35.5t-39 -94.5q0 -58 39 -93t99 -35t99.5 35t39.5 93zM464 -75q0 36 -24 62q-34 37 -121 37
h-132q-36 -9 -59.5 -35t-23.5 -68q0 -38 27 -63q42 -40 148 -40q115 0 159 44q26 26 26 63z" />
    <glyph glyph-name="h" unicode="h" horiz-adv-x="583" 
d="M494 0h-50v327q0 139 -129 139q-86 0 -126 -62t-40 -154v-250h-50v722h50v-314q22 48 68.5 76.5t100.5 28.5q86 0 131 -48.5t45 -134.5v-330z" />
    <glyph glyph-name="i" unicode="i" horiz-adv-x="260" 
d="M165 639h-70v70h70v-70zM157 0h-53v500h53v-500z" />
    <glyph glyph-name="j" unicode="j" horiz-adv-x="284" 
d="M188 639h-69v70h69v-70zM180 500v-564q0 -143 -129 -143q-27 0 -69 7v46q40 -6 65 -6q83 0 83 98v562h50z" />
    <glyph glyph-name="k" unicode="k" horiz-adv-x="536" 
d="M518 0h-61l-176 267l-131 -143v-124h-51v722h51v-526l281 304h63l-177 -193z" />
    <glyph glyph-name="l" unicode="l" horiz-adv-x="279" 
d="M241 44v-44q-22 -6 -45 -6q-100 0 -100 106v622h50v-620q0 -29 11 -44.5t41 -15.5q33 0 43 2z" />
    <glyph glyph-name="m" unicode="m" horiz-adv-x="875" 
d="M786 0h-50v327q0 139 -119 139q-52 0 -89 -34q-59 -56 -59 -149v-283h-51v327q0 139 -120 139q-52 0 -89 -34q-60 -57 -60 -182v-250h-50v500h44l6 -86q21 45 60.5 72t91.5 27q125 0 158 -108q46 108 161 108q84 0 125 -49.5t41 -133.5v-330z" />
    <glyph glyph-name="n" unicode="n" horiz-adv-x="583" 
d="M494 0h-50v327q0 137 -129 137q-86 0 -126 -61t-40 -153v-250h-50v500h44l6 -91q22 47 68.5 75.5t100.5 28.5q86 0 131 -48.5t45 -134.5v-330z" />
    <glyph glyph-name="o" unicode="o" horiz-adv-x="546" 
d="M490 250q0 -132 -71 -203q-60 -60 -146 -60t-146 60q-71 71 -71 203t71 203q60 60 146 60t146 -60q71 -71 71 -203zM439 250q0 112 -56 170q-44 44 -110 44t-110 -44q-56 -58 -56 -170t56 -170q44 -44 110 -44t110 44q56 58 56 170z" />
    <glyph glyph-name="p" unicode="p" horiz-adv-x="584" 
d="M530 251q0 -137 -78 -212q-54 -52 -136 -52q-53 0 -100 27t-67 70v-284h-50v700h44l6 -88q20 45 67 73t99 28q80 0 133 -47q82 -72 82 -215zM479 250q0 121 -66 179q-38 35 -99 35q-60 0 -102 -40q-64 -63 -64 -174q0 -117 63 -175q41 -39 105 -39q66 0 107 44
q56 59 56 170z" />
    <glyph glyph-name="q" unicode="q" horiz-adv-x="584" 
d="M485 -200h-50v284q-20 -43 -67 -70t-100 -27q-82 0 -136 52q-78 75 -78 212q0 143 82 215q53 47 133 47q52 0 99 -28t67 -73l6 88h44v-700zM436 250q0 111 -64 174q-42 40 -102 40q-61 0 -99 -35q-66 -58 -66 -179q0 -111 56 -170q41 -44 107 -44q64 0 105 39
q63 58 63 175z" />
    <glyph glyph-name="r" unicode="r" horiz-adv-x="381" 
d="M357 502v-50q-20 5 -49 5q-44 0 -76.5 -18.5t-50 -51t-25 -69t-7.5 -78.5v-240h-50v500h44l6 -101q17 50 60.5 78t98.5 28q33 0 49 -3z" />
    <glyph glyph-name="s" unicode="s" horiz-adv-x="512" 
d="M456 139q0 -54 -34 -92q-54 -60 -162 -60q-106 0 -164 64q-38 43 -42 101h51q5 -45 37 -77q41 -40 118 -40q81 0 118 37q27 27 27 64q0 35 -24 60t-68 31l-97 13q-78 9 -113 50q-28 32 -28 79q0 59 43 97q51 47 137 47q99 0 151 -59q36 -43 38 -92h-50q-7 39 -25 60
q-37 44 -114 44q-58 0 -90 -23q-39 -29 -39 -69q0 -35 21.5 -56t75.5 -28l95 -13q66 -9 102 -49t36 -89z" />
    <glyph glyph-name="t" unicode="t" horiz-adv-x="370" 
d="M336 49v-44q-48 -12 -83 -12q-129 0 -129 146v315h-100v46h100v138l50 12v-150h155v-46h-155v-313q0 -49 18 -75t65 -26q30 0 79 9z" />
    <glyph glyph-name="u" unicode="u" horiz-adv-x="583" 
d="M484 1h-44l-6 91q-19 -46 -67.5 -75t-101.5 -29q-86 0 -131 48.5t-45 134.5v330h50v-327q0 -137 129 -137q86 0 126 61.5t40 152.5v250h50v-500z" />
    <glyph glyph-name="v" unicode="v" horiz-adv-x="467" 
d="M453 500l-190 -500h-51l-198 500h57l168 -429l161 429h53z" />
    <glyph glyph-name="w" unicode="w" horiz-adv-x="746" 
d="M703 500l-124 -500h-60l-147 428l-146 -428h-59l-124 500h48l108 -440l148 433h53l147 -429l109 436h47z" />
    <glyph glyph-name="x" unicode="x" horiz-adv-x="472" 
d="M450 0h-60l-154 223l-155 -223h-59l180 259l-177 247h60l152 -214l153 214h58l-178 -247z" />
    <glyph glyph-name="y" unicode="y" horiz-adv-x="479" 
d="M467 500l-232 -607q-39 -102 -135 -102q-31 0 -46 4q-7 1 -17 5v42l21 -3q18 -3 40 -3q62 0 91 74l32 82l-205 508h54l175 -444l168 444h54z" />
    <glyph glyph-name="z" unicode="z" horiz-adv-x="492" 
d="M438 0h-377v56l320 397h-320v47h374v-55l-320 -397h323v-48z" />
    <glyph glyph-name="braceleft" unicode="{" horiz-adv-x="351" 
d="M331 -116h-26q-69 0 -105.5 37t-36.5 106v179q0 40 -30 65t-73 29v47q43 4 73 28.5t30 64.5v179q0 69 36.5 106t105.5 37h26v-42h-26q-51 0 -73.5 -24.5t-22.5 -76.5v-179q0 -42 -26.5 -73t-67.5 -43q41 -12 67.5 -44t26.5 -74v-179q0 -52 22.5 -76.5t73.5 -24.5h26v-42z
" />
    <glyph glyph-name="bar" unicode="|" horiz-adv-x="258" 
d="M150 -115h-42v876h42v-876z" />
    <glyph glyph-name="braceright" unicode="}" horiz-adv-x="351" 
d="M291 347v-47q-43 -4 -73 -29t-30 -65v-179q0 -69 -36.5 -106t-105.5 -37h-26v42h26q51 0 73.5 24.5t22.5 76.5v179q0 42 26.5 74t67.5 44q-41 12 -67.5 43t-26.5 73v179q0 52 -22.5 76.5t-73.5 24.5h-26v42h26q69 0 105.5 -37t36.5 -106v-179q0 -40 30 -64.5t73 -28.5z
" />
    <glyph glyph-name="asciitilde" unicode="~" horiz-adv-x="620" 
d="M505 347l32 -36q-64 -62 -129 -62q-36 0 -100 30q-62 30 -96 30q-49 0 -97 -46l-32 37q63 61 130 61q40 0 100 -28q60 -29 95 -29q51 0 97 43z" />
    <glyph glyph-name="uni00A0" unicode="&#xa0;" horiz-adv-x="215" 
 />
    <glyph glyph-name="exclamdown" unicode="&#xa1;" horiz-adv-x="307" 
d="M177 429h-76v76h76v-76zM169 -204h-62v194l14 288h34l14 -288v-194z" />
    <glyph glyph-name="cent" unicode="&#xa2;" 
d="M442 270h52q-6 -74 -53.5 -125.5t-121.5 -57.5v-87h-41v88q-73 7 -124 58q-68 68 -68 203q0 136 68 204q51 51 124 58v98h41v-98q74 -6 120.5 -55t52.5 -125h-52q-5 53 -37.5 89t-83.5 42v-425q52 6 85 43t38 90zM278 137v425q-55 -6 -88 -42q-53 -55 -53 -171
q0 -117 53 -172q31 -34 88 -40z" />
    <glyph glyph-name="sterling" unicode="&#xa3;" horiz-adv-x="578" 
d="M490 156h47q-2 -75 -44.5 -115.5t-112.5 -40.5h-327v55q81 6 81 92v201h-83v45h83v116q0 100 52 150.5t135 50.5q85 0 132 -53.5t47 -126.5h-48q0 57 -34.5 95.5t-99.5 38.5q-134 0 -134 -157v-114h182v-45h-182v-206q0 -71 -47 -91v-2h243q54 0 81 29.5t29 77.5z" />
    <glyph glyph-name="currency" unicode="&#xa4;" 
d="M586 31l-40 -39l-69 80q-60 -47 -136 -47q-81 0 -137 47l-69 -80l-40 39l80 70q-55 63 -55 152q0 86 52 149l-77 67l40 40l67 -78q58 49 139 49t139 -49l66 78l40 -40l-77 -67q53 -64 53 -149q0 -88 -55 -152zM515 253q0 75 -49.5 128.5t-124.5 53.5t-124.5 -53.5
t-49.5 -128.5q0 -76 49.5 -129.5t124.5 -53.5t124.5 53.5t49.5 129.5z" />
    <glyph glyph-name="yen" unicode="&#xa5;" 
d="M545 695l-216 -378h165v-40h-188l-1 -2v-101h189v-41h-189v-133h-50v133h-168v41h168v101l-1 2h-167v40h144l-216 378h55l212 -370l211 370h52z" />
    <glyph glyph-name="brokenbar" unicode="&#xa6;" horiz-adv-x="264" 
d="M156 438h-48v321h48v-321zM156 -50h-48v318h48v-318z" />
    <glyph glyph-name="section" unicode="&#xa7;" horiz-adv-x="545" 
d="M477 152q0 -38 -22 -74.5t-63 -60.5q47 -52 47 -109q0 -61 -45 -106q-49 -47 -120 -47q-75 0 -122 47q-49 49 -49 130h52q0 -61 35 -99q31 -31 84 -31q49 0 80 28q34 31 34 75q0 53 -49 96l-206 180q-60 52 -60 133q0 38 22 74.5t63 60.5q-47 52 -47 109q0 61 45 106
q49 47 120 47q75 0 122 -47q49 -49 49 -128h-52q0 59 -35 97q-31 31 -84 31q-49 0 -80 -28q-34 -31 -34 -75q0 -53 49 -96l206 -180q60 -52 60 -133zM430 147q0 33 -9.5 55t-35.5 45l-195 171q-32 -17 -51 -43.5t-19 -55.5q0 -33 9.5 -55t35.5 -45l195 -171q32 17 51 43.5
t19 55.5z" />
    <glyph glyph-name="dieresis" unicode="&#xa8;" horiz-adv-x="291" 
d="M268 623h-61v63h61v-63zM83 623h-60v63h60v-63z" />
    <glyph glyph-name="copyright" unicode="&#xa9;" horiz-adv-x="880" 
d="M807 354q0 -153 -107 -261.5t-260 -108.5t-260 108.5t-107 261.5t107 261.5t260 108.5t260 -108.5t107 -261.5zM759 354q0 136 -92.5 231t-226.5 95t-226.5 -95t-92.5 -231t92.5 -230.5t226.5 -94.5t226.5 94.5t92.5 230.5zM555 299h51q-6 -68 -50.5 -107.5t-109.5 -39.5
q-86 0 -132.5 57t-46.5 143q0 87 46.5 144t132.5 57q65 0 109.5 -39.5t50.5 -107.5h-51q-4 45 -34 72t-75 27q-65 0 -96 -42t-31 -111q0 -68 31 -110t96 -42q45 0 75 27t34 72z" />
    <glyph glyph-name="ordfeminine" unicode="&#xaa;" horiz-adv-x="490" 
d="M418 352v-35q-7 -2 -19 -2q-59 0 -61 70q-15 -34 -51.5 -56t-81.5 -22q-57 0 -95 31.5t-38 86.5q0 50 34 80t92 34l140 10v36q0 86 -100 86q-46 0 -74.5 -21.5t-31.5 -62.5h-40q4 58 43.5 90t102.5 32q102 0 130 -71q10 -27 10 -73v-173q0 -22 5.5 -31.5t23.5 -9.5
q8 0 11 1zM338 495v17l-137 -8q-42 -2 -65 -23t-23 -56q0 -40 25.5 -60.5t69.5 -20.5q65 0 97.5 45t32.5 106z" />
    <glyph glyph-name="guillemotleft" unicode="&#xab;" horiz-adv-x="524" 
d="M459 98l-34 -26l-162 219l162 219l34 -25l-137 -194zM250 98l-33 -26l-162 219l162 219l33 -25l-136 -194z" />
    <glyph glyph-name="logicalnot" unicode="&#xac;" horiz-adv-x="620" 
d="M527 119h-47v160h-417v46h464v-206z" />
    <glyph glyph-name="registered" unicode="&#xae;" horiz-adv-x="880" 
d="M807 354q0 -153 -107 -261.5t-260 -108.5t-260 108.5t-107 261.5t107 261.5t260 108.5t260 -108.5t107 -261.5zM759 354q0 136 -92.5 231t-226.5 95t-226.5 -95t-92.5 -231t92.5 -230.5t226.5 -94.5t226.5 94.5t92.5 230.5zM587 429q0 -38 -19.5 -68t-56.5 -44l72 -157
h-54l-66 147h-8h-89v-147h-47v393h137q63 0 97 -36t34 -88zM539 430q0 31 -20.5 53t-62.5 22h-90v-150h89q42 0 63 22t21 53z" />
    <glyph glyph-name="macron" unicode="&#xaf;" horiz-adv-x="296" 
d="M279 616h-262v47h262v-47z" />
    <glyph glyph-name="degree" unicode="&#xb0;" horiz-adv-x="477" 
d="M404 557q0 -69 -48.5 -117.5t-116.5 -48.5q-69 0 -117.5 48.5t-48.5 117.5t48.5 117.5t117.5 48.5q68 0 116.5 -48.5t48.5 -117.5zM358 557q0 51 -34 86.5t-85 35.5t-85.5 -35.5t-34.5 -86.5t34.5 -86.5t85.5 -35.5t85 35.5t34 86.5z" />
    <glyph glyph-name="plusminus" unicode="&#xb1;" horiz-adv-x="570" 
d="M497 352h-188v-197h-47v197h-189v44h189v191h47v-191h188v-44zM497 0h-424v44h424v-44z" />
    <glyph glyph-name="twosuperior" unicode="&#xb2;" horiz-adv-x="411" 
d="M338 351h-260l-1 37l157 143q44 39 44 76q0 31 -22 48t-54 17q-40 0 -60 -23t-20 -60h-49q0 54 35.5 90.5t93.5 36.5q52 0 88 -29t36 -80q0 -24 -12.5 -48t-25 -37t-36.5 -35l-102 -93h188v-43z" />
    <glyph glyph-name="threesuperior" unicode="&#xb3;" horiz-adv-x="420" 
d="M347 446q0 -36 -19 -61q-35 -48 -117 -48q-54 0 -94 33.5t-44 92.5h46q3 -41 27.5 -62.5t64.5 -21.5q54 0 76 27q14 17 14 43q0 27 -20 44t-57 17h-30v42h30q68 0 68 57q0 26 -17 43q-23 23 -62 23q-84 0 -89 -80h-47q5 57 42 89t94 32q68 0 102 -40q25 -28 25 -64
q0 -26 -14.5 -49.5t-39.5 -31.5q61 -21 61 -85z" />
    <glyph glyph-name="acute" unicode="&#xb4;" horiz-adv-x="243" 
d="M221 664l-169 -99l-17 27l158 116z" />
    <glyph glyph-name="mu" unicode="&#xb5;" horiz-adv-x="593" 
d="M494 0h-44l-6 91q-19 -46 -67.5 -75t-101.5 -29q-85 0 -126 49v-236h-50v370v147v183h50v-183v-144q0 -137 129 -137q86 0 126 61.5t40 152.5v250h50v-500z" />
    <glyph glyph-name="paragraph" unicode="&#xb6;" horiz-adv-x="674" 
d="M589 660h-100v-785h-49v785h-139v-785h-49v477q-74 0 -125.5 52t-51.5 125q0 74 52 126.5t125 52.5h337v-48z" />
    <glyph glyph-name="periodcentered" unicode="&#xb7;" horiz-adv-x="284" 
d="M178 255h-88v90h88v-90z" />
    <glyph glyph-name="cedilla" unicode="&#xb8;" horiz-adv-x="174" 
d="M146 -58l-66 -160l-53 25l72 135h47z" />
    <glyph glyph-name="onesuperior" unicode="&#xb9;" horiz-adv-x="311" 
d="M208 345h-47v308l-98 -74v54l100 76h45v-364z" />
    <glyph glyph-name="ordmasculine" unicode="&#xba;" horiz-adv-x="490" 
d="M410 507q0 -104 -52 -156q-45 -45 -112 -45q-68 0 -113 45q-52 52 -52 156t52 156q45 45 113 45q67 0 112 -45q52 -52 52 -156zM369 507q0 89 -40 129q-31 33 -83 33q-54 0 -85 -33q-39 -39 -39 -129t39 -129q30 -32 85 -32q53 0 83 32q40 40 40 129z" />
    <glyph glyph-name="guillemotright" unicode="&#xbb;" horiz-adv-x="524" 
d="M469 291l-162 -219l-34 26l137 193l-137 194l34 25zM260 291l-161 -219l-34 26l137 193l-137 194l34 25z" />
    <glyph glyph-name="onequarter" unicode="&#xbc;" horiz-adv-x="849" 
d="M776 81h-64v-81h-47v81h-186v49l157 241h54l-163 -246h138v83h47v-83h64v-44zM707 694l-518 -706l-35 27l517 704zM248 345h-47v308l-98 -74v54l100 76h45v-364z" />
    <glyph glyph-name="onehalf" unicode="&#xbd;" horiz-adv-x="919" 
d="M806 0h-260v37l156 144q45 41 45 76q0 31 -21.5 47.5t-54.5 16.5q-40 0 -60.5 -23t-20.5 -60h-48q0 53 35.5 90.5t93.5 37.5q52 0 88 -29t36 -80q0 -24 -12 -47.5t-25 -37.5t-37 -35l-103 -93h188v-44zM704 694l-518 -706l-35 27l517 704zM243 345h-47v308l-98 -74v54
l100 76h45v-364z" />
    <glyph glyph-name="threequarters" unicode="&#xbe;" horiz-adv-x="891" 
d="M818 81h-64v-81h-47v81h-186v49l157 241h54l-163 -246h138v83h47v-83h64v-44zM752 694l-518 -706l-35 27l517 704zM350 446q0 -36 -19 -61q-35 -48 -117 -48q-54 0 -94 33.5t-44 92.5h46q3 -41 27.5 -62.5t64.5 -21.5q54 0 76 27q14 17 14 43q0 27 -20 44t-57 17h-30v42
h30q68 0 68 57q0 26 -17 43q-23 23 -62 23q-84 0 -89 -80h-47q5 57 42 89t94 32q68 0 102 -40q25 -28 25 -64q0 -26 -14.5 -49.5t-39.5 -31.5q61 -21 61 -85z" />
    <glyph glyph-name="questiondown" unicode="&#xbf;" horiz-adv-x="488" 
d="M283 426h-79v78h79v-78zM393 -11h55q0 -95 -60 -152.5t-157 -57.5q-95 0 -150 60q-51 53 -51 123q0 111 106 178q51 33 66.5 63t15.5 93h52q0 -77 -23 -117t-89 -85q-72 -49 -72 -129q0 -62 40 -98.5t105 -36.5q78 0 120 41t42 118z" />
    <glyph glyph-name="Agrave" unicode="&#xc0;" horiz-adv-x="608" 
d="M394 817l-18 -29l-176 105l29 47zM600 0h-53l-72 187h-343l-70 -187h-54l269 709h51zM456 236l-154 401l-151 -401h305z" />
    <glyph glyph-name="Aacute" unicode="&#xc1;" horiz-adv-x="608" 
d="M600 0h-53l-72 187h-343l-70 -187h-54l269 709h51zM456 236l-154 401l-151 -401h305zM388 867l-169 -99l-17 27l158 116z" />
    <glyph glyph-name="Acircumflex" unicode="&#xc2;" horiz-adv-x="608" 
d="M600 0h-53l-72 187h-343l-70 -187h-54l269 709h51zM456 236l-154 401l-151 -401h305zM441 790l-31 -27l-111 131l-110 -131l-31 27l125 143h33z" />
    <glyph glyph-name="Atilde" unicode="&#xc3;" horiz-adv-x="608" 
d="M418 865l24 -27q-44 -42 -85 -42q-26 0 -68.5 21.5t-64.5 21.5q-28 0 -55 -25l-24 26q47 43 86 43q26 0 68 -21.5t62 -21.5q29 0 57 25zM600 0h-53l-72 187h-343l-70 -187h-54l269 709h51zM456 236l-154 401l-151 -401h305z" />
    <glyph glyph-name="Adieresis" unicode="&#xc4;" horiz-adv-x="608" 
d="M600 0h-53l-72 187h-343l-70 -187h-54l269 709h51zM456 236l-154 401l-151 -401h305zM423 793h-61v63h61v-63zM238 793h-60v63h60v-63z" />
    <glyph glyph-name="Aring" unicode="&#xc5;" horiz-adv-x="608" 
d="M600 0h-53l-72 187h-343l-70 -187h-54l257 678q-33 11 -53 39t-20 66q0 48 30 78.5t82 30.5t82 -30.5t30 -78.5q0 -38 -21 -66t-55 -40zM376 782q0 31 -20 52.5t-52 21.5t-52 -21.5t-20 -52.5t20 -52t52 -21t52 21t20 52zM456 236l-154 401l-151 -401h305z" />
    <glyph glyph-name="AE" unicode="&#xc6;" horiz-adv-x="887" 
d="M833 0h-399v198h-292l-86 -198h-56l314 709h519v-48h-348v-258h298v-49h-298v-305h348v-49zM434 246v415h-89l-181 -415h270z" />
    <glyph glyph-name="Ccedilla" unicode="&#xc7;" horiz-adv-x="623" 
d="M526 217h54q-8 -100 -78 -165t-174 -65q-110 0 -187 77q-51 53 -67 124t-16 167t16 167t67 123q74 77 187 77q104 0 174 -65t78 -165h-54q-6 79 -60.5 129t-137.5 50q-91 0 -149 -61q-30 -31 -46 -79.5t-18.5 -84t-2.5 -91.5q0 -54 3 -91.5t19 -85.5t46 -79
q58 -61 148 -61q83 0 137.5 50t60.5 129zM363 -48l-66 -160l-53 25l72 135h47z" />
    <glyph glyph-name="Egrave" unicode="&#xc8;" horiz-adv-x="616" 
d="M562 0h-454v709h454v-50h-401v-260h353v-50h-353v-299h401v-50zM418 796l-17 -27l-168 99l27 44z" />
    <glyph glyph-name="Eacute" unicode="&#xc9;" horiz-adv-x="616" 
d="M562 0h-454v709h454v-50h-401v-260h353v-50h-353v-299h401v-50zM423 867l-169 -99l-17 27l158 116z" />
    <glyph glyph-name="Ecircumflex" unicode="&#xca;" horiz-adv-x="616" 
d="M562 0h-454v709h454v-50h-401v-260h353v-50h-353v-299h401v-50zM470 795l-31 -27l-111 131l-110 -131l-31 27l125 143h33z" />
    <glyph glyph-name="Edieresis" unicode="&#xcb;" horiz-adv-x="616" 
d="M562 0h-454v709h454v-50h-401v-260h353v-50h-353v-299h401v-50zM451 813h-61v63h61v-63zM266 813h-60v63h60v-63z" />
    <glyph glyph-name="Igrave" unicode="&#xcc;" horiz-adv-x="269" 
d="M161 0h-53v709h53v-709zM218 791l-17 -27l-168 99l27 44z" />
    <glyph glyph-name="Iacute" unicode="&#xcd;" horiz-adv-x="269" 
d="M161 0h-53v709h53v-709zM226 867l-169 -99l-17 27l158 116z" />
    <glyph glyph-name="Icircumflex" unicode="&#xce;" horiz-adv-x="269" 
d="M161 0h-53v709h53v-709zM278 790l-31 -27l-111 131l-110 -131l-31 27l125 143h33z" />
    <glyph glyph-name="Idieresis" unicode="&#xcf;" horiz-adv-x="269" 
d="M233 815h-61v63h61v-63zM94 815h-60v63h60v-63zM161 0h-53v709h53v-709z" />
    <glyph glyph-name="Eth" unicode="&#xd0;" horiz-adv-x="681" 
d="M623 355q0 -92 -17 -163.5t-69 -121.5q-73 -70 -179 -70h-235v347h-76v42h76v320h235q106 0 179 -70q52 -51 69 -121.5t17 -162.5zM570 355q0 83 -13.5 145.5t-57.5 104.5q-55 53 -141 53h-183v-269h170v-42h-170v-296h183q86 0 141 53q44 43 57.5 105.5t13.5 145.5z" />
    <glyph glyph-name="Ntilde" unicode="&#xd1;" horiz-adv-x="738" 
d="M630 0h-59l-411 628v-628h-52v709h59l412 -627v627h51v-709zM483 835l24 -25q-46 -40 -82 -40q-24 0 -65 20.5t-62 20.5q-25 0 -52 -23l-23 24q43 41 82 41q25 0 65 -20.5t59 -20.5q29 0 54 23z" />
    <glyph glyph-name="Ograve" unicode="&#xd2;" horiz-adv-x="658" 
d="M600 355q0 -96 -17.5 -170t-71.5 -126q-74 -72 -182 -72t-182 72q-54 52 -71.5 126t-17.5 170t17.5 169.5t71.5 125.5q74 72 182 72t182 -72q54 -52 71.5 -125.5t17.5 -169.5zM546 355q0 56 -3 93t-20.5 87t-49.5 81q-57 55 -144 55t-144 -55q-32 -31 -49.5 -81
t-20.5 -87t-3 -93q0 -55 3 -92.5t20.5 -88t49.5 -81.5q57 -55 144 -55t144 55q32 31 49.5 81.5t20.5 88t3 92.5zM416 796l-17 -27l-168 99l27 44z" />
    <glyph glyph-name="Oacute" unicode="&#xd3;" horiz-adv-x="658" 
d="M600 355q0 -96 -17.5 -170t-71.5 -126q-74 -72 -182 -72t-182 72q-54 52 -71.5 126t-17.5 170t17.5 169.5t71.5 125.5q74 72 182 72t182 -72q54 -52 71.5 -125.5t17.5 -169.5zM546 355q0 56 -3 93t-20.5 87t-49.5 81q-57 55 -144 55t-144 -55q-32 -31 -49.5 -81
t-20.5 -87t-3 -93q0 -55 3 -92.5t20.5 -88t49.5 -81.5q57 -55 144 -55t144 55q32 31 49.5 81.5t20.5 88t3 92.5zM416 872l-169 -99l-17 27l158 116z" />
    <glyph glyph-name="Ocircumflex" unicode="&#xd4;" horiz-adv-x="658" 
d="M600 355q0 -96 -17.5 -170t-71.5 -126q-74 -72 -182 -72t-182 72q-54 52 -71.5 126t-17.5 170t17.5 169.5t71.5 125.5q74 72 182 72t182 -72q54 -52 71.5 -125.5t17.5 -169.5zM546 355q0 56 -3 93t-20.5 87t-49.5 81q-57 55 -144 55t-144 -55q-32 -31 -49.5 -81
t-20.5 -87t-3 -93q0 -55 3 -92.5t20.5 -88t49.5 -81.5q57 -55 144 -55t144 55q32 31 49.5 81.5t20.5 88t3 92.5zM464 790l-31 -27l-111 131l-110 -131l-31 27l125 143h33z" />
    <glyph glyph-name="Otilde" unicode="&#xd5;" horiz-adv-x="658" 
d="M444 863l25 -26q-46 -42 -86 -42q-25 0 -68 21.5t-65 21.5q-28 0 -55 -25l-23 26q47 43 85 43q27 0 68.5 -21.5t61.5 -21.5q31 0 57 24zM600 355q0 -96 -17.5 -170t-71.5 -126q-74 -72 -182 -72t-182 72q-54 52 -71.5 126t-17.5 170t17.5 169.5t71.5 125.5q74 72 182 72
t182 -72q54 -52 71.5 -125.5t17.5 -169.5zM546 355q0 56 -3 93t-20.5 87t-49.5 81q-57 55 -144 55t-144 -55q-32 -31 -49.5 -81t-20.5 -87t-3 -93q0 -55 3 -92.5t20.5 -88t49.5 -81.5q57 -55 144 -55t144 55q32 31 49.5 81.5t20.5 88t3 92.5z" />
    <glyph glyph-name="Odieresis" unicode="&#xd6;" horiz-adv-x="658" 
d="M600 355q0 -96 -17.5 -170t-71.5 -126q-74 -72 -182 -72t-182 72q-54 52 -71.5 126t-17.5 170t17.5 169.5t71.5 125.5q74 72 182 72t182 -72q54 -52 71.5 -125.5t17.5 -169.5zM546 355q0 56 -3 93t-20.5 87t-49.5 81q-57 55 -144 55t-144 -55q-32 -31 -49.5 -81
t-20.5 -87t-3 -93q0 -55 3 -92.5t20.5 -88t49.5 -81.5q57 -55 144 -55t144 55q32 31 49.5 81.5t20.5 88t3 92.5zM446 795h-61v63h61v-63zM261 795h-60v63h60v-63z" />
    <glyph glyph-name="multiply" unicode="&#xd7;" horiz-adv-x="675" 
d="M602 63l-31 -31l-234 234l-233 -234l-31 31l234 234l-234 233l31 31l233 -233l234 233l31 -31l-234 -233z" />
    <glyph glyph-name="Oslash" unicode="&#xd8;" horiz-adv-x="658" 
d="M600 355q0 -96 -17.5 -170t-71.5 -126q-74 -72 -182 -72q-68 0 -127 31l-39 -87l-39 17l42 94q-3 4 -9 9t-10 8q-54 52 -71.5 126t-17.5 170t17.5 169.5t71.5 125.5q74 72 182 72q71 0 127 -32l35 78l39 -18l-38 -84q14 -10 19 -16q54 -52 71.5 -125.5t17.5 -169.5z
M546 355q0 55 -3.5 92.5t-20.5 87t-49 81.5l-2 2l-248 -553q47 -27 106 -27q87 0 144 55q32 31 49.5 81.5t20.5 88t3 92.5zM188 90l247 554q-47 27 -106 27q-87 0 -144 -55q-32 -31 -49.5 -81t-20.5 -87t-3 -93q0 -54 3.5 -92t20.5 -88t49 -82z" />
    <glyph glyph-name="Ugrave" unicode="&#xd9;" horiz-adv-x="693" 
d="M598 709v-449q0 -122 -64.5 -197.5t-187.5 -75.5t-187 75.5t-64 197.5v449h52v-450q0 -98 50 -160t149 -62q100 0 150 62t50 160v450h52zM418 791l-17 -27l-168 99l27 44z" />
    <glyph glyph-name="Uacute" unicode="&#xda;" horiz-adv-x="693" 
d="M598 709v-449q0 -122 -64.5 -197.5t-187.5 -75.5t-187 75.5t-64 197.5v449h52v-450q0 -98 50 -160t149 -62q100 0 150 62t50 160v450h52zM440 867l-169 -99l-17 27l158 116z" />
    <glyph glyph-name="Ucircumflex" unicode="&#xdb;" horiz-adv-x="693" 
d="M598 709v-449q0 -122 -64.5 -197.5t-187.5 -75.5t-187 75.5t-64 197.5v449h52v-450q0 -98 50 -160t149 -62q100 0 150 62t50 160v450h52zM484 790l-31 -27l-111 131l-110 -131l-31 27l125 143h33z" />
    <glyph glyph-name="Udieresis" unicode="&#xdc;" horiz-adv-x="693" 
d="M598 709v-449q0 -122 -64.5 -197.5t-187.5 -75.5t-187 75.5t-64 197.5v449h52v-450q0 -98 50 -160t149 -62q100 0 150 62t50 160v450h52zM469 794h-61v63h61v-63zM284 794h-60v63h60v-63z" />
    <glyph glyph-name="Yacute" unicode="&#xdd;" horiz-adv-x="545" 
d="M543 709l-245 -428v-281h-51v281l-245 428h56l216 -377l216 377h53zM369 857l-169 -99l-17 27l158 116z" />
    <glyph glyph-name="Thorn" unicode="&#xde;" horiz-adv-x="598" 
d="M570 361q0 -104 -63.5 -157t-170.5 -53h-176v-151h-52v709h52v-139h176q107 0 170.5 -53t63.5 -156zM516 361q0 80 -49 119t-131 39h-176v-317h176q82 0 131 39.5t49 119.5z" />
    <glyph glyph-name="germandbls" unicode="&#xdf;" horiz-adv-x="593" 
d="M549 208q0 -96 -64 -155t-161 -59q-36 0 -74 6v48q40 -5 70 -5q77 0 126.5 43t49.5 119q0 79 -48.5 120.5t-129.5 41.5h-40v49h40q64 0 96.5 35.5t32.5 95.5q0 58 -41 93.5t-97 35.5q-70 0 -106 -43.5t-36 -115.5v-517h-50v452h-89v48h89v17q0 92 50.5 149.5t141.5 57.5
q81 0 135.5 -49.5t54.5 -128.5q0 -48 -23.5 -90.5t-66.5 -57.5q65 -18 102.5 -70t37.5 -120z" />
    <glyph glyph-name="agrave" unicode="&#xe0;" horiz-adv-x="561" 
d="M513 44v-44q-12 -3 -24 -3q-79 0 -79 98q-19 -51 -69 -79.5t-111 -28.5q-75 0 -123.5 42t-48.5 112q0 65 45.5 104.5t122.5 44.5l184 13v49q0 114 -132 114q-62 0 -101 -28t-43 -82h-50q6 74 59 115.5t135 41.5q57 0 103.5 -22t65.5 -70q13 -34 13 -96v-228
q0 -29 7.5 -41.5t31.5 -12.5q11 0 14 1zM410 231v26l-179 -11q-57 -4 -89.5 -32t-32.5 -73q0 -52 34.5 -80t90.5 -28q87 0 131.5 58.5t44.5 139.5zM352 568l-169 100l28 44l158 -117z" />
    <glyph glyph-name="aacute" unicode="&#xe1;" horiz-adv-x="561" 
d="M513 44v-44q-12 -3 -24 -3q-79 0 -79 98q-19 -51 -69 -79.5t-111 -28.5q-75 0 -123.5 42t-48.5 112q0 65 45.5 104.5t122.5 44.5l184 13v49q0 114 -132 114q-62 0 -101 -28t-43 -82h-50q6 74 59 115.5t135 41.5q57 0 103.5 -22t65.5 -70q13 -34 13 -96v-228
q0 -29 7.5 -41.5t31.5 -12.5q11 0 14 1zM410 231v26l-179 -11q-57 -4 -89.5 -32t-32.5 -73q0 -52 34.5 -80t90.5 -28q87 0 131.5 58.5t44.5 139.5zM366 668l-169 -99l-17 27l158 116z" />
    <glyph glyph-name="acircumflex" unicode="&#xe2;" horiz-adv-x="561" 
d="M513 44v-44q-12 -3 -24 -3q-79 0 -79 98q-19 -51 -69 -79.5t-111 -28.5q-75 0 -123.5 42t-48.5 112q0 65 45.5 104.5t122.5 44.5l184 13v49q0 114 -132 114q-62 0 -101 -28t-43 -82h-50q6 74 59 115.5t135 41.5q57 0 103.5 -22t65.5 -70q13 -34 13 -96v-228
q0 -29 7.5 -41.5t31.5 -12.5q11 0 14 1zM410 231v26l-179 -11q-57 -4 -89.5 -32t-32.5 -73q0 -52 34.5 -80t90.5 -28q87 0 131.5 58.5t44.5 139.5zM421 589l-31 -27l-111 131l-110 -131l-31 27l125 143h33z" />
    <glyph glyph-name="atilde" unicode="&#xe3;" horiz-adv-x="561" 
d="M513 44v-44q-12 -3 -24 -3q-79 0 -79 98q-19 -51 -69 -79.5t-111 -28.5q-75 0 -123.5 42t-48.5 112q0 65 45.5 104.5t122.5 44.5l184 13v49q0 114 -132 114q-62 0 -101 -28t-43 -82h-50q6 74 59 115.5t135 41.5q57 0 103.5 -22t65.5 -70q13 -34 13 -96v-228
q0 -29 7.5 -41.5t31.5 -12.5q11 0 14 1zM410 231v26l-179 -11q-57 -4 -89.5 -32t-32.5 -73q0 -52 34.5 -80t90.5 -28q87 0 131.5 58.5t44.5 139.5zM388 672l24 -25q-46 -40 -82 -40q-24 0 -65 20.5t-62 20.5q-25 0 -52 -23l-23 24q43 41 82 41q25 0 65 -20.5t59 -20.5
q29 0 54 23z" />
    <glyph glyph-name="adieresis" unicode="&#xe4;" horiz-adv-x="561" 
d="M513 44v-44q-12 -3 -24 -3q-79 0 -79 98q-19 -51 -69 -79.5t-111 -28.5q-75 0 -123.5 42t-48.5 112q0 65 45.5 104.5t122.5 44.5l184 13v49q0 114 -132 114q-62 0 -101 -28t-43 -82h-50q6 74 59 115.5t135 41.5q57 0 103.5 -22t65.5 -70q13 -34 13 -96v-228
q0 -29 7.5 -41.5t31.5 -12.5q11 0 14 1zM410 231v26l-179 -11q-57 -4 -89.5 -32t-32.5 -73q0 -52 34.5 -80t90.5 -28q87 0 131.5 58.5t44.5 139.5zM403 623h-61v63h61v-63zM218 623h-60v63h60v-63z" />
    <glyph glyph-name="aring" unicode="&#xe5;" horiz-adv-x="561" 
d="M513 44v-44q-12 -3 -24 -3q-79 0 -79 98q-19 -51 -69 -79.5t-111 -28.5q-75 0 -123.5 42t-48.5 112q0 65 45.5 104.5t122.5 44.5l184 13v49q0 114 -132 114q-62 0 -101 -28t-43 -82h-50q6 74 59 115.5t135 41.5q57 0 103.5 -22t65.5 -70q13 -34 13 -96v-228
q0 -29 7.5 -41.5t31.5 -12.5q11 0 14 1zM410 231v26l-179 -11q-57 -4 -89.5 -32t-32.5 -73q0 -52 34.5 -80t90.5 -28q87 0 131.5 58.5t44.5 139.5zM382 670q0 -47 -30.5 -76t-76.5 -29t-76.5 29t-30.5 76q0 46 28.5 75.5t78.5 29.5t78.5 -29.5t28.5 -75.5zM343 670
q0 30 -18.5 50t-49.5 20t-50 -20t-19 -50t19 -50t50 -20t49.5 20t18.5 50z" />
    <glyph glyph-name="ae" unicode="&#xe6;" horiz-adv-x="852" 
d="M802 241h-356v-23q0 -79 40.5 -132t117.5 -53q114 0 137 117h51q-13 -75 -63 -119t-125 -44q-132 0 -184 127q-23 -60 -73.5 -92t-119.5 -32q-73 0 -121 41t-48 109q0 63 48.5 105t120.5 42h168v65q0 54 -34 84t-95 30q-59 0 -95.5 -29t-40.5 -84h-50q5 75 54.5 117.5
t131.5 42.5q53 0 101 -23.5t66 -67.5q52 91 167 91q79 0 132 -50q70 -69 70 -205v-17zM448 287h303q-2 92 -52 141q-40 38 -99 38q-74 0 -113 -49.5t-39 -129.5zM395 214v27h-165q-54 0 -88 -28t-34 -73q0 -50 34 -76.5t87 -26.5q78 0 122 51t44 126z" />
    <glyph glyph-name="ccedilla" unicode="&#xe7;" horiz-adv-x="512" 
d="M415 158h53q-10 -74 -63.5 -122.5t-131.5 -48.5q-88 0 -147 59q-70 70 -70 204t70 204q59 59 147 59q77 0 131 -46.5t62 -122.5h-52q-8 53 -46.5 86.5t-94.5 33.5q-68 0 -111 -43q-55 -57 -55 -171q0 -115 55 -172q40 -42 111 -42q56 0 94.5 34.5t47.5 87.5zM319 -48
l-68 -166l-55 26l75 140h48z" />
    <glyph glyph-name="egrave" unicode="&#xe8;" horiz-adv-x="539" 
d="M489 271q0 -6 -0.5 -16.5t-0.5 -16.5h-382q1 -88 52 -150q45 -53 121 -53q67 0 109 44q28 28 38 71h52q-10 -60 -56 -105q-58 -58 -143 -58q-97 0 -159 71q-64 75 -64 190q0 111 49 178q65 87 170 87q97 0 155.5 -71.5t58.5 -170.5zM107 284h331q-2 76 -46 129t-117 53
q-75 0 -121.5 -52.5t-46.5 -129.5zM352 570l-169 99l28 44l158 -116z" />
    <glyph glyph-name="eacute" unicode="&#xe9;" horiz-adv-x="539" 
d="M489 271q0 -6 -0.5 -16.5t-0.5 -16.5h-382q1 -88 52 -150q45 -53 121 -53q67 0 109 44q28 28 38 71h52q-10 -60 -56 -105q-58 -58 -143 -58q-97 0 -159 71q-64 75 -64 190q0 111 49 178q65 87 170 87q97 0 155.5 -71.5t58.5 -170.5zM107 284h331q-2 76 -46 129t-117 53
q-75 0 -121.5 -52.5t-46.5 -129.5zM370 666l-169 -99l-17 27l158 116z" />
    <glyph glyph-name="ecircumflex" unicode="&#xea;" horiz-adv-x="539" 
d="M489 271q0 -6 -0.5 -16.5t-0.5 -16.5h-382q1 -88 52 -150q45 -53 121 -53q67 0 109 44q28 28 38 71h52q-10 -60 -56 -105q-58 -58 -143 -58q-97 0 -159 71q-64 75 -64 190q0 111 49 178q65 87 170 87q97 0 155.5 -71.5t58.5 -170.5zM107 284h331q-2 76 -46 129t-117 53
q-75 0 -121.5 -52.5t-46.5 -129.5zM419 589l-31 -27l-111 131l-110 -131l-31 27l125 143h33z" />
    <glyph glyph-name="edieresis" unicode="&#xeb;" horiz-adv-x="539" 
d="M489 271q0 -6 -0.5 -16.5t-0.5 -16.5h-382q1 -88 52 -150q45 -53 121 -53q67 0 109 44q28 28 38 71h52q-10 -60 -56 -105q-58 -58 -143 -58q-97 0 -159 71q-64 75 -64 190q0 111 49 178q65 87 170 87q97 0 155.5 -71.5t58.5 -170.5zM107 284h331q-2 76 -46 129t-117 53
q-75 0 -121.5 -52.5t-46.5 -129.5zM400 623h-61v63h61v-63zM215 623h-60v63h60v-63z" />
    <glyph glyph-name="igrave" unicode="&#xec;" horiz-adv-x="260" 
d="M156 0h-52v500h52v-500zM193 598l-169 99l28 44l158 -116z" />
    <glyph glyph-name="iacute" unicode="&#xed;" horiz-adv-x="260" 
d="M156 0h-52v500h52v-500zM229 697l-169 -99l-17 27l158 116z" />
    <glyph glyph-name="icircumflex" unicode="&#xee;" horiz-adv-x="260" 
d="M156 0h-52v500h52v-500zM272 613l-31 -27l-111 131l-110 -131l-32 27l125 143h33z" />
    <glyph glyph-name="idieresis" unicode="&#xef;" horiz-adv-x="260" 
d="M232 647h-62v63h62v-63zM86 647h-60v63h60v-63zM156 0h-52v500h52v-500z" />
    <glyph glyph-name="eth" unicode="&#xf0;" horiz-adv-x="542" 
d="M486 250q0 -136 -68 -204q-59 -59 -147 -59t-147 59q-68 68 -68 204t68 204q59 59 147 59q38 0 75 -13l-56 98h-125v40h102l-48 84h57l47 -84h101v-40h-78l111 -197v-1q29 -59 29 -150zM435 250q0 116 -53 171q-43 43 -111 43t-111 -43q-53 -55 -53 -171q0 -117 53 -172
q40 -42 111 -42t111 42q53 55 53 172z" />
    <glyph glyph-name="ntilde" unicode="&#xf1;" horiz-adv-x="583" 
d="M494 0h-50v327q0 137 -129 137q-86 0 -126 -61t-40 -153v-250h-50v500h44l6 -91q22 47 68.5 75.5t100.5 28.5q86 0 131 -48.5t45 -134.5v-330zM409 675l24 -25q-46 -40 -82 -40q-24 0 -65 20.5t-62 20.5q-25 0 -52 -23l-23 24q43 41 82 41q25 0 65 -20.5t59 -20.5
q29 0 54 23z" />
    <glyph glyph-name="ograve" unicode="&#xf2;" horiz-adv-x="546" 
d="M490 250q0 -132 -71 -203q-60 -60 -146 -60t-146 60q-71 71 -71 203t71 203q60 60 146 60t146 -60q71 -71 71 -203zM439 250q0 112 -56 170q-44 44 -110 44t-110 -44q-56 -58 -56 -170t56 -170q44 -44 110 -44t110 44q56 58 56 170zM361 594l-17 -27l-168 99l27 44z" />
    <glyph glyph-name="oacute" unicode="&#xf3;" horiz-adv-x="546" 
d="M490 250q0 -132 -71 -203q-60 -60 -146 -60t-146 60q-71 71 -71 203t71 203q60 60 146 60t146 -60q71 -71 71 -203zM439 250q0 112 -56 170q-44 44 -110 44t-110 -44q-56 -58 -56 -170t56 -170q44 -44 110 -44t110 44q56 58 56 170zM373 667l-169 -99l-17 27l158 116z
" />
    <glyph glyph-name="ocircumflex" unicode="&#xf4;" horiz-adv-x="546" 
d="M490 250q0 -132 -71 -203q-60 -60 -146 -60t-146 60q-71 71 -71 203t71 203q60 60 146 60t146 -60q71 -71 71 -203zM439 250q0 112 -56 170q-44 44 -110 44t-110 -44q-56 -58 -56 -170t56 -170q44 -44 110 -44t110 44q56 58 56 170zM416 589l-31 -27l-111 131l-110 -131
l-31 27l125 143h33z" />
    <glyph glyph-name="otilde" unicode="&#xf5;" horiz-adv-x="546" 
d="M490 250q0 -132 -71 -203q-60 -60 -146 -60t-146 60q-71 71 -71 203t71 203q60 60 146 60t146 -60q71 -71 71 -203zM439 250q0 112 -56 170q-44 44 -110 44t-110 -44q-56 -58 -56 -170t56 -170q44 -44 110 -44t110 44q56 58 56 170zM392 682l24 -26q-45 -39 -82 -39
q-24 0 -65 20t-62 20q-25 0 -52 -23l-23 24q43 41 82 41q25 0 65 -20.5t59 -20.5q28 0 54 24z" />
    <glyph glyph-name="odieresis" unicode="&#xf6;" horiz-adv-x="546" 
d="M396 623h-61v63h61v-63zM211 623h-60v63h60v-63zM490 250q0 -132 -71 -203q-60 -60 -146 -60t-146 60q-71 71 -71 203t71 203q60 60 146 60t146 -60q71 -71 71 -203zM439 250q0 112 -56 170q-44 44 -110 44t-110 -44q-56 -58 -56 -170t56 -170q44 -44 110 -44t110 44
q56 58 56 170z" />
    <glyph glyph-name="divide" unicode="&#xf7;" horiz-adv-x="653" 
d="M363 472h-79v84h79v-84zM570 277h-487v46h487v-46zM363 49h-79v83h79v-83z" />
    <glyph glyph-name="oslash" unicode="&#xf8;" horiz-adv-x="546" 
d="M490 250q0 -132 -71 -203q-60 -60 -146 -60q-43 0 -83 17l-36 -81l-36 16l38 84q-14 9 -29 24q-71 71 -71 203t71 203q60 60 146 60q53 0 94 -22l37 83l37 -16l-40 -89q7 -5 18 -16q71 -71 71 -203zM439 250q0 114 -56 170l-3 3l-170 -375q27 -12 63 -12q66 0 110 44
q56 58 56 170zM176 68l171 379q-32 17 -74 17q-66 0 -110 -44q-56 -58 -56 -170q0 -119 56 -170z" />
    <glyph glyph-name="ugrave" unicode="&#xf9;" horiz-adv-x="583" 
d="M484 1h-44l-6 91q-19 -46 -67.5 -75t-101.5 -29q-86 0 -131 48.5t-45 134.5v330h50v-327q0 -137 129 -137q86 0 126 61.5t40 152.5v250h50v-500zM355 567l-169 99l28 44l158 -116z" />
    <glyph glyph-name="uacute" unicode="&#xfa;" horiz-adv-x="583" 
d="M484 1h-44l-6 91q-19 -46 -67.5 -75t-101.5 -29q-86 0 -131 48.5t-45 134.5v330h50v-327q0 -137 129 -137q86 0 126 61.5t40 152.5v250h50v-500zM389 666l-169 -99l-17 27l158 116z" />
    <glyph glyph-name="ucircumflex" unicode="&#xfb;" horiz-adv-x="583" 
d="M484 1h-44l-6 91q-19 -46 -67.5 -75t-101.5 -29q-86 0 -131 48.5t-45 134.5v330h50v-327q0 -137 129 -137q86 0 126 61.5t40 152.5v250h50v-500zM421 589l-31 -27l-111 131l-110 -131l-31 27l125 143h33z" />
    <glyph glyph-name="udieresis" unicode="&#xfc;" horiz-adv-x="583" 
d="M484 1h-44l-6 91q-19 -46 -67.5 -75t-101.5 -29q-86 0 -131 48.5t-45 134.5v330h50v-327q0 -137 129 -137q86 0 126 61.5t40 152.5v250h50v-500zM407 623h-61v63h61v-63zM222 623h-60v63h60v-63z" />
    <glyph glyph-name="yacute" unicode="&#xfd;" horiz-adv-x="479" 
d="M467 500l-232 -607q-39 -102 -135 -102q-31 0 -46 4q-7 1 -17 5v42l21 -3q18 -3 40 -3q62 0 91 74l32 82l-205 508h54l175 -444l168 444h54zM344 656l-169 -99l-17 27l158 116z" />
    <glyph glyph-name="thorn" unicode="&#xfe;" horiz-adv-x="581" 
d="M527 251q0 -138 -74 -209q-55 -55 -139 -55q-53 0 -97 25t-67 72v-285h-51v452v470h51v-305q23 47 67 72t97 25q84 0 139 -55q74 -71 74 -207zM477 251q0 111 -61 172q-41 41 -102 41q-45 0 -78 -17.5t-51 -48.5t-26.5 -67.5t-8.5 -79.5t8.5 -79.5t26.5 -68t51 -49.5
t78 -18q61 0 102 41q61 61 61 174z" />
    <glyph glyph-name="ydieresis" unicode="&#xff;" horiz-adv-x="479" 
d="M467 500l-232 -607q-39 -102 -135 -102q-31 0 -46 4q-7 1 -17 5v42l21 -3q18 -3 40 -3q62 0 91 74l32 82l-205 508h54l175 -444l168 444h54zM365 623h-61v63h61v-63zM180 623h-60v63h60v-63z" />
    <glyph glyph-name="dotlessi" unicode="&#x131;" horiz-adv-x="260" 
d="M156 0h-52v500h52v-500z" />
    <glyph glyph-name="Lslash" unicode="&#x141;" horiz-adv-x="563" 
d="M545 0h-420v313l-72 -45l-22 36l94 58v347h52v-314l156 96l22 -36l-178 -110v-296h368v-49z" />
    <glyph glyph-name="lslash" unicode="&#x142;" horiz-adv-x="318" 
d="M285 478l-116 -72v-304q0 -29 11 -44.5t41 -15.5q33 0 43 2v-44q-22 -6 -45 -6q-100 0 -100 106v275l-66 -41l-22 36l88 55v297h50v-266l94 58z" />
    <glyph glyph-name="OE" unicode="&#x152;" horiz-adv-x="1050" 
d="M996 0h-454v100q-11 -21 -31 -41q-74 -72 -184 -72t-184 72q-54 52 -69.5 124t-15.5 172q0 64 4 107t24 97.5t57 90.5q74 72 184 72t184 -72q22 -22 31 -41v100h454v-50h-401v-260h353v-50h-353v-299h401v-50zM542 355q0 59 -2 93.5t-18.5 85.5t-48.5 82q-57 55 -146 55
t-146 -55q-32 -31 -48.5 -82t-18.5 -85.5t-2 -93.5t2 -93.5t18.5 -86t48.5 -82.5q57 -55 146 -55t146 55q32 31 48.5 82.5t18.5 86t2 93.5z" />
    <glyph glyph-name="oe" unicode="&#x153;" horiz-adv-x="912" 
d="M862 271q0 -6 -0.5 -16.5t-0.5 -16.5h-375q0 -2 -0.5 -6.5t-0.5 -6.5q5 -86 50 -137q45 -53 120 -53q65 0 106 41q29 29 39 74h52q-10 -63 -57 -108q-55 -55 -140 -55q-94 0 -156 71q-18 21 -36 55q-15 -37 -45 -67q-59 -59 -147 -59t-147 59q-68 68 -68 204t68 204
q59 59 147 59t147 -59q29 -29 44 -64l21 36q65 87 168 87q110 0 169 -90q42 -63 42 -152zM486 284h325q-2 77 -42 128q-46 54 -118 54q-76 0 -120 -54q-18 -22 -31.5 -59t-13.5 -69zM435 250q0 116 -53 171q-43 43 -111 43t-111 -43q-53 -55 -53 -171q0 -117 53 -172
q40 -42 111 -42t111 42q53 55 53 172z" />
    <glyph glyph-name="Scaron" unicode="&#x160;" horiz-adv-x="622" 
d="M569 192q0 -80 -56 -136q-70 -69 -201 -69q-128 0 -198 76q-57 60 -64 141h54q7 -63 52 -109q58 -58 156 -58q105 0 161 53q42 40 42 102q0 52 -37.5 91t-100.5 47l-132 17q-79 10 -126.5 55.5t-47.5 123.5q0 77 62 134q68 62 175 62q57 0 109.5 -21.5t82.5 -56.5
q49 -55 54 -123h-53q-7 51 -39 90q-50 61 -154 61q-86 0 -135 -43q-48 -43 -48 -103q0 -109 125 -124l134 -17q82 -10 133.5 -64.5t51.5 -128.5zM448 895l-122 -140h-33l-122 140l30 26l109 -128l108 128z" />
    <glyph glyph-name="scaron" unicode="&#x161;" horiz-adv-x="512" 
d="M456 139q0 -54 -34 -92q-54 -60 -162 -60q-106 0 -164 64q-38 43 -42 101h51q5 -45 37 -77q41 -40 118 -40q81 0 118 37q27 27 27 64q0 35 -24 60t-68 31l-97 13q-78 9 -113 50q-28 32 -28 79q0 59 43 97q51 47 137 47q99 0 151 -59q36 -43 38 -92h-50q-7 39 -25 60
q-37 44 -114 44q-58 0 -90 -23q-39 -29 -39 -69q0 -35 21.5 -56t75.5 -28l95 -13q66 -9 102 -49t36 -89zM382 684l-112 -129h-30l-112 129l28 24l100 -117l99 117z" />
    <glyph glyph-name="Ydieresis" unicode="&#x178;" horiz-adv-x="545" 
d="M543 709l-245 -428v-281h-51v281l-245 428h56l216 -377l216 377h53zM395 799h-61v63h61v-63zM210 799h-60v63h60v-63z" />
    <glyph glyph-name="Zcaron" unicode="&#x17d;" horiz-adv-x="618" 
d="M566 0h-516v56l451 604h-444v49h504v-56l-452 -604h457v-49zM173 893l31 27l111 -131l110 131l31 -27l-125 -143h-33z" />
    <glyph glyph-name="zcaron" unicode="&#x17e;" horiz-adv-x="492" 
d="M438 0h-377v56l320 397h-320v47h374v-55l-320 -397h323v-48zM377 683l-112 -129h-30l-112 129l28 24l100 -117l99 117z" />
    <glyph glyph-name="florin" unicode="&#x192;" horiz-adv-x="528" 
d="M472 710v-47q-28 7 -57 7q-38 0 -59 -21.5t-30 -67.5l-32 -155h151v-45h-160l-34 -169h-1l-42 -208q-26 -126 -135 -126q-32 0 -57 4v46q33 -3 56 -3q38 0 59 21t30 67l75 368h-112v45h122l33 163q26 126 136 126q25 0 57 -5z" />
    <glyph glyph-name="circumflex" unicode="&#x2c6;" horiz-adv-x="355" 
d="M319 589l-31 -27l-111 131l-110 -131l-31 27l125 143h33z" />
    <glyph glyph-name="caron" unicode="&#x2c7;" horiz-adv-x="353" 
d="M318 900l-125 -143h-33l-125 143l31 27l111 -131l110 131z" />
    <glyph glyph-name="breve" unicode="&#x2d8;" horiz-adv-x="363" 
d="M285 709h43q-5 -66 -44 -104.5t-102 -38.5t-102 38.5t-44 104.5h43q5 -48 31.5 -75t71.5 -27t71.5 27t31.5 75z" />
    <glyph glyph-name="dotaccent" unicode="&#x2d9;" horiz-adv-x="275" 
d="M172 639h-69v70h69v-70z" />
    <glyph glyph-name="ring" unicode="&#x2da;" horiz-adv-x="220" 
d="M217 670q0 -47 -30.5 -76t-76.5 -29t-76.5 29t-30.5 76q0 46 28.5 75.5t78.5 29.5t78.5 -29.5t28.5 -75.5zM178 670q0 30 -18.5 50t-49.5 20t-50 -20t-19 -50t19 -50t50 -20t49.5 20t18.5 50z" />
    <glyph glyph-name="ogonek" unicode="&#x2db;" horiz-adv-x="174" 
d="M146 -193l-53 -25l-65 160h46z" />
    <glyph glyph-name="tilde" unicode="&#x2dc;" horiz-adv-x="360" 
d="M298 675l24 -25q-46 -40 -82 -40q-24 0 -65 20.5t-62 20.5q-25 0 -52 -23l-23 24q43 41 82 41q25 0 65 -20.5t59 -20.5q29 0 54 23z" />
    <glyph glyph-name="hungarumlaut" unicode="&#x2dd;" horiz-adv-x="459" 
d="M441 666l-171 -104l-18 27l159 122zM228 666l-171 -104l-18 27l159 122z" />
    <glyph glyph-name="uni0394" unicode="&#x394;" horiz-adv-x="705" 
d="M609 242h-42v390l-488 -488l-33 33l490 489h-381v43h454v-467z" />
    <glyph glyph-name="uni03A9" unicode="&#x3a9;" horiz-adv-x="880" 
d="M807 354q0 -153 -107 -261.5t-260 -108.5t-260 108.5t-107 261.5t107 261.5t260 108.5t260 -108.5t107 -261.5zM759 354q0 136 -92.5 231t-226.5 95t-226.5 -95t-92.5 -231t92.5 -230.5t226.5 -94.5t226.5 94.5t92.5 230.5zM598 412q0 -50 -34 -85t-95 -35h-87v-143h-47
v384h135q61 0 94.5 -35t33.5 -86zM552 413q0 30 -20.5 51.5t-61.5 21.5h-88v-147h87q41 0 62 22t21 52z" />
    <glyph glyph-name="uni03BC" unicode="&#x3bc;" horiz-adv-x="593" 
d="M494 0h-44l-6 91q-19 -46 -67.5 -75t-101.5 -29q-85 0 -126 49v-236h-50v370v147v183h50v-183v-144q0 -137 129 -137q86 0 126 61.5t40 152.5v250h50v-500z" />
    <glyph glyph-name="pi" unicode="&#x3c0;" horiz-adv-x="641" 
d="M563 44v-43q-22 -6 -44 -6q-102 0 -102 107v353h-214v-455h-48v455h-82v45h475v-45h-80v-351q0 -30 11 -46t41 -16q33 0 43 2z" />
    <glyph glyph-name="endash" unicode="&#x2013;" horiz-adv-x="614" 
d="M539 279h-464v46h464v-46z" />
    <glyph glyph-name="emdash" unicode="&#x2014;" horiz-adv-x="1097" 
d="M1022 279h-947v46h947v-46z" />
    <glyph glyph-name="quoteleft" unicode="&#x2018;" horiz-adv-x="233" 
d="M146 719l17 -28q-32 -17 -44 -37.5t-12 -57.5h55v-90h-92v91q0 86 76 122z" />
    <glyph glyph-name="quoteright" unicode="&#x2019;" horiz-adv-x="213" 
d="M158 709v-91q0 -86 -76 -122l-17 28q32 17 44 37.5t12 57.5h-55v90h92z" />
    <glyph glyph-name="quotesinglbase" unicode="&#x201a;" horiz-adv-x="243" 
d="M168 90v-91q0 -86 -76 -122l-17 28q32 17 44 37.5t12 57.5h-55v90h92z" />
    <glyph glyph-name="quotedblleft" unicode="&#x201c;" horiz-adv-x="386" 
d="M309 727l17 -28q-32 -17 -44 -37.5t-12 -57.5h55v-90h-92v91q0 86 76 122zM146 727l17 -28q-32 -17 -44 -37.5t-12 -57.5h55v-90h-92v91q0 86 76 122z" />
    <glyph glyph-name="quotedblright" unicode="&#x201d;" horiz-adv-x="376" 
d="M321 709v-91q0 -86 -76 -122l-17 28q32 17 44 37.5t12 57.5h-55v90h92zM158 709v-91q0 -86 -76 -122l-17 28q32 17 44 37.5t12 57.5h-55v90h92z" />
    <glyph glyph-name="quotedblbase" unicode="&#x201e;" horiz-adv-x="401" 
d="M326 90v-91q0 -86 -76 -122l-17 28q32 17 44 37.5t12 57.5h-55v90h92zM163 90v-91q0 -86 -76 -122l-17 28q32 17 44 37.5t12 57.5h-55v90h92z" />
    <glyph glyph-name="dagger" unicode="&#x2020;" horiz-adv-x="567" 
d="M504 456h-196v-581h-48v581h-197v44h197v209h48v-209h196v-44z" />
    <glyph glyph-name="daggerdbl" unicode="&#x2021;" horiz-adv-x="567" 
d="M505 84h-197v-209h-48v209h-196v44h196v328h-197v44h197v209h48v-209h196v-44h-196v-328h197v-44z" />
    <glyph glyph-name="bullet" unicode="&#x2022;" horiz-adv-x="426" 
d="M328 292q0 -48 -33.5 -81.5t-81.5 -33.5t-81.5 33.5t-33.5 81.5t33.5 81.5t81.5 33.5t81.5 -33.5t33.5 -81.5z" />
    <glyph glyph-name="ellipsis" unicode="&#x2026;" horiz-adv-x="858" 
d="M758 0h-86v89h86v-89zM472 0h-86v89h86v-89zM186 0h-86v89h86v-89z" />
    <glyph glyph-name="perthousand" unicode="&#x2030;" horiz-adv-x="1139" 
d="M1081 168q0 -73 -32 -122q-40 -58 -115 -58q-76 0 -116 58q-32 49 -32 122t32 122q40 58 116 58q75 0 115 -58q32 -49 32 -122zM363 541q0 -73 -32 -122q-40 -59 -115 -59q-76 0 -116 59q-32 49 -32 122q0 72 32 121q40 59 115 59q76 0 116 -59q32 -49 32 -121zM679 694
l-518 -706l-35 27l517 704zM732 168q0 -75 -31 -122q-40 -58 -116 -58t-116 58q-32 49 -32 122t32 122q40 58 116 58t116 -58q31 -47 31 -122zM1036 168q0 61 -25 98.5t-77 37.5t-77 -37.5t-25 -98.5t25 -98.5t77 -37.5t77 37.5t25 98.5zM318 541q0 61 -26 98.5t-77 37.5
q-52 0 -77 -37.5t-25 -98.5t26 -98.5t77 -37.5q52 0 77 37.5t25 98.5zM687 168q0 61 -25 98.5t-77 37.5t-77 -37.5t-25 -98.5t25 -98.5t77 -37.5t77 37.5t25 98.5z" />
    <glyph glyph-name="guilsinglleft" unicode="&#x2039;" horiz-adv-x="315" 
d="M250 98l-33 -26l-162 219l162 219l33 -25l-136 -194z" />
    <glyph glyph-name="guilsinglright" unicode="&#x203a;" horiz-adv-x="315" 
d="M260 291l-161 -219l-34 26l137 193l-137 194l34 25z" />
    <glyph glyph-name="fraction" unicode="&#x2044;" horiz-adv-x="589" 
d="M574 694l-518 -706l-35 27l517 704z" />
    <glyph glyph-name="Euro" unicode="&#x20ac;" horiz-adv-x="593" 
d="M549 77l19 -42q-70 -48 -168 -48q-118 0 -193 78q-65 66 -84 192h-84v42h80q-1 16 -1 49t1 49h-80v42h84q13 118 84 191q78 79 193 79q98 0 168 -48l-19 -42q-61 42 -149 42q-99 0 -161 -68q-50 -55 -62 -154h289l-19 -42h-273q-1 -17 -1 -50q0 -32 1 -48h235l-19 -42
h-213q12 -99 62 -154q62 -68 161 -68q88 0 149 42z" />
    <glyph glyph-name="trademark" unicode="&#x2122;" horiz-adv-x="826" 
d="M743 307h-42v353l-123 -344h-29l-123 344v-353h-41v403h63l116 -326l115 326h64v-403zM299 669h-115v-362h-42v362h-115v41h272v-41z" />
    <glyph glyph-name="Omega" unicode="&#x2126;" horiz-adv-x="880" 
d="M807 354q0 -153 -107 -261.5t-260 -108.5t-260 108.5t-107 261.5t107 261.5t260 108.5t260 -108.5t107 -261.5zM759 354q0 136 -92.5 231t-226.5 95t-226.5 -95t-92.5 -231t92.5 -230.5t226.5 -94.5t226.5 94.5t92.5 230.5zM598 412q0 -50 -34 -85t-95 -35h-87v-143h-47
v384h135q61 0 94.5 -35t33.5 -86zM552 413q0 30 -20.5 51.5t-61.5 21.5h-88v-147h87q41 0 62 22t21 52z" />
    <glyph glyph-name="partialdiff" unicode="&#x2202;" 
d="M498 0h-376v48h163v585l-173 -127v56l178 133h45v-647h163v-48z" />
    <glyph glyph-name="Delta" unicode="&#x2206;" horiz-adv-x="705" 
d="M609 242h-42v390l-488 -488l-33 33l490 489h-381v43h454v-467z" />
    <glyph glyph-name="product" unicode="&#x220f;" horiz-adv-x="898" 
d="M818 856h-738v19h738v-19zM818 666h-738v19h738v-19zM818 477h-738v19h738v-19zM818 287h-738v19h738v-19zM818 98h-738v19h738v-19zM818 -92h-738v19h738v-19zM818 -281h-738v19h738v-19z" />
    <glyph glyph-name="summation" unicode="&#x2211;" horiz-adv-x="926" 
d="M846 -72h-766v220h40v-178h687v178h39v-220z" />
    <glyph glyph-name="minus" unicode="&#x2212;" horiz-adv-x="630" 
d="M532 279h-464v46h464v-46z" />
    <glyph glyph-name="radical" unicode="&#x221a;" horiz-adv-x="680" 
d="M690 788h-116l-265 -796h-51l-173 497h54l145 -426l253 769h153v-44z" />
    <glyph glyph-name="infinity" unicode="&#x221e;" horiz-adv-x="720" 
d="M636 -1h-317q-95 0 -157.5 50t-62.5 144q0 58 32 104t88 70q-50 18 -78.5 61t-28.5 95q0 91 60.5 139.5t146.5 48.5q49 0 85 -10v-45q-38 8 -78 8q-68 0 -115.5 -35.5t-47.5 -103.5q0 -67 43.5 -102t111.5 -35h155v119h50v-119h113v-44h-113v-299h113v-46zM473 45v299
h-155q-71 0 -119.5 -41.5t-48.5 -110.5q0 -71 48.5 -109t124.5 -38h150z" />
    <glyph glyph-name="integral" unicode="&#x222b;" horiz-adv-x="705" 
d="M659 177l-33 -33l-488 488v-390h-42v467h454v-43h-381z" />
    <glyph glyph-name="approxequal" unicode="&#x2248;" horiz-adv-x="641" 
d="M523 422l35 -35q-33 -34 -62.5 -50t-70.5 -16q-38 0 -105.5 32.5t-104.5 32.5q-31 0 -50.5 -11t-46.5 -37l-35 35q33 34 62 50t70 16t110.5 -31.5t99.5 -31.5q31 0 50.5 10t47.5 36zM523 207l35 -35q-32 -33 -62 -49t-71 -16q-38 0 -105.5 32t-104.5 32q-31 0 -50.5 -11
t-46.5 -37l-35 35q33 34 62 50t70 16t110.5 -31t99.5 -31q32 0 51.5 10t46.5 35z" />
    <glyph glyph-name="notequal" unicode="&#x2260;" horiz-adv-x="693" 
d="M580 136h-322l-73 -109l-33 22l58 87h-97v46h128l128 191h-256v46h287l72 107l33 -22l-57 -85h132v-46h-163l-128 -191h291v-46z" />
    <glyph glyph-name="lessequal" unicode="&#x2264;" horiz-adv-x="842" 
d="M796 282h-676l277 -275l-30 -30l-328 327l327 327l30 -30l-276 -274h676v-45z" />
    <glyph glyph-name="greaterequal" unicode="&#x2265;" horiz-adv-x="842" 
d="M803 304l-328 -327l-30 30l277 275h-676v45h676l-276 274l30 30z" />
    <glyph glyph-name="lozenge" unicode="&#x25ca;" 
d="M507 348q0 -226 -82 -305q-58 -56 -141 -56t-141 56q-82 79 -82 305t82 305q58 56 141 56t141 -56q82 -79 82 -305zM124 186l305 376q-14 37 -38 59q-42 40 -107 40t-107 -40q-29 -28 -44.5 -81t-18 -92.5t-2.5 -99.5q0 -104 12 -162zM456 348q0 105 -13 165l-305 -376
q13 -36 39 -62q42 -40 107 -40t107 40q29 28 44.5 81t18 92.5t2.5 99.5z" />
    <glyph glyph-name="fi" unicode="&#xfb01;" horiz-adv-x="620" 
d="M349 722v-45q-40 6 -72 6q-95 0 -95 -97v-86h157v-46h-157v-454h-50v454h-100v46h100v88q0 60 37 100t104 40q40 0 76 -6zM524 639h-70v70h70v-70zM516 0h-53v500h53v-500z" />
    <glyph glyph-name="fl" unicode="&#xfb02;" horiz-adv-x="635" 
d="M349 722v-45q-40 6 -72 6q-95 0 -95 -97v-86h157v-46h-157v-454h-50v454h-100v46h100v88q0 60 37 100t104 40q40 0 76 -6zM597 44v-44q-22 -6 -45 -6q-100 0 -100 106v622h50v-620q0 -29 11 -44.5t41 -15.5q33 0 43 2z" />
    <glyph glyph-name="CR" horiz-adv-x="215" 
 />
    <glyph glyph-name="apple" horiz-adv-x="588" 
d="M539 364q0 -41 -26 -67.5t-67 -26.5h-72q17 -23 17 -54q0 -41 -26 -67t-67 -26h-249v248q0 41 26 67.5t67 26.5q29 0 55 -17v71q0 41 26 67.5t67 26.5t67 -26.5t26 -67.5v-62h63q41 0 67 -26.5t26 -66.5zM522 364q0 34 -21 55t-55 21h-79v79q0 34 -21.5 55.5t-55.5 21.5
t-55 -21.5t-21 -55.5v-232h232q34 0 55 21.5t21 55.5z" />
  </font>
</defs>
</svg>
