<svg id="Layer_1" data-name="Layer 1" xmlns="http://www.w3.org/2000/svg" viewBox="0 0 1920 1079.98"><defs><style>.cls-1{fill:#d4dbe4;}.cls-2{fill:#fff;}</style></defs><title>bg-and</title><polygon id="_Path_" data-name="&lt;Path&gt;" class="cls-1" points="0 0 0 539.98 0 540 0 1079.98 1920 1079.98 1920 540 1920 539.98 1920 0 0 0"/><polygon id="_Path_2" data-name="&lt;Path&gt;" class="cls-2" points="1920 539.98 1380 539.98 1380 1079.98 1920 539.98"/><g id="_Group_" data-name="&lt;Group&gt;"><path id="_Path_3" data-name="&lt;Path&gt;" class="cls-2" d="M570,0H300V270C300,120.88,420.88,0,570,0Z" transform="translate(0 0)"/><path id="_Path_4" data-name="&lt;Path&gt;" class="cls-2" d="M570,0C719.12,0,840,120.88,840,270V0Z" transform="translate(0 0)"/><path id="_Path_5" data-name="&lt;Path&gt;" class="cls-2" d="M300,270V540H570C420.88,540,300,419.12,300,270Z" transform="translate(0 0)"/><path id="_Path_6" data-name="&lt;Path&gt;" class="cls-2" d="M570,540H840V270C840,419.12,719.12,540,570,540Z" transform="translate(0 0)"/></g></svg>