<svg id="Layer_1" data-name="Layer 1" xmlns="http://www.w3.org/2000/svg" viewBox="0 0 1920 1079.98"><defs><style>.cls-1{fill:#d4dbe4;}.cls-2{fill:#dce442;}.cls-3{fill:#fff;}</style></defs><title>bg-stand</title><polygon id="_Path_" data-name="&lt;Path&gt;" class="cls-1" points="0 0 0 269.98 0 269.99 0 539.97 1920 539.97 1920 269.99 1920 269.98 1920 0 0 0"/><polygon id="_Path_2" data-name="&lt;Path&gt;" class="cls-1" points="0 540.01 0 809.99 0 810 0 1079.98 1920 1079.98 1920 810 1920 809.99 1920 540.01 0 540.01"/><path id="_Path_3" data-name="&lt;Path&gt;" class="cls-2" d="M300.75,1080h0c298.23,0,540-241.77,540-540h-540Z" transform="translate(0 0)"/><path id="_Path_4" data-name="&lt;Path&gt;" class="cls-3" d="M300,540C300,328,177.81,144.47,0,56.11v967.74C177.81,935.49,300,752,300,540Z" transform="translate(0 0)"/></svg>