<svg id="Layer_1" data-name="Layer 1" xmlns="http://www.w3.org/2000/svg" viewBox="0 0 1920 1080"><defs><style>.cls-1{fill:#00556f;}.cls-2{fill:#dce442;}</style></defs><title>bg-operative</title><polygon id="_Path_" data-name="&lt;Path&gt;" class="cls-1" points="0 0 0 539.98 0 540 0 1079.98 1920 1079.98 1920 540 1920 539.98 1920 0 0 0"/><polygon id="_Path_2" data-name="&lt;Path&gt;" class="cls-2" points="1920 540 1380 540 1380 1080 1920 540"/><g id="_Group_" data-name="&lt;Group&gt;"><path id="_Path_3" data-name="&lt;Path&gt;" class="cls-2" d="M570,1H300V271C300,121.87,420.88,1,570,1Z" transform="translate(0 -0.97)"/><path id="_Path_4" data-name="&lt;Path&gt;" class="cls-2" d="M570,1C719.12,1,840,121.87,840,271V1Z" transform="translate(0 -0.97)"/><path id="_Path_5" data-name="&lt;Path&gt;" class="cls-2" d="M300,271V541H570C420.88,541,300,420.1,300,271Z" transform="translate(0 -0.97)"/><path id="_Path_6" data-name="&lt;Path&gt;" class="cls-2" d="M570,541H840V271C840,420.1,719.12,541,570,541Z" transform="translate(0 -0.97)"/></g></svg>