<svg id="Layer_1" data-name="Layer 1" xmlns="http://www.w3.org/2000/svg" viewBox="0 0 1920 1080"><defs><style>.cls-1{fill:#dce442;}.cls-2{fill:#d4dbe4;}</style></defs><title>bg-planning</title><polygon id="_Path_" data-name="&lt;Path&gt;" class="cls-1" points="0 0.01 0 539.99 0 540.01 0 1079.99 1920 1079.99 1920 540.01 1920 539.99 1920 0.01 0 0.01"/><g id="_Group_" data-name="&lt;Group&gt;"><path id="_Path_2" data-name="&lt;Path&gt;" class="cls-2" d="M0,1078H30a272.87,272.87,0,0,1-30-1.67Z" transform="translate(0 1.99)"/><path id="_Path_3" data-name="&lt;Path&gt;" class="cls-2" d="M30,538c149.12,0,270,120.88,270,270V538Z" transform="translate(0 1.99)"/><path id="_Path_4" data-name="&lt;Path&gt;" class="cls-2" d="M30,538H0v1.67A272.83,272.83,0,0,1,30,538Z" transform="translate(0 1.99)"/><path id="_Path_5" data-name="&lt;Path&gt;" class="cls-2" d="M30,1078H300V808C300,957.12,179.12,1078,30,1078Z" transform="translate(0 1.99)"/></g><circle id="_Path_6" data-name="&lt;Path&gt;" class="cls-2" cx="1380" cy="540" r="540"/></svg>