<svg id="Layer_1" data-name="Layer 1" xmlns="http://www.w3.org/2000/svg" viewBox="0 0 1920 1082"><defs><style>.cls-1{fill:#d4dbe4;}.cls-2{fill:#dce442;}</style></defs><title>bg-this</title><rect id="_Rectangle_" data-name="&lt;Rectangle&gt;" class="cls-1" y="2" width="1920" height="540"/><polygon id="_Path_" data-name="&lt;Path&gt;" class="cls-2" points="1380 0 840 0 840 540 1380 0"/><g id="_Group_" data-name="&lt;Group&gt;"><path id="_Path_2" data-name="&lt;Path&gt;" class="cls-2" d="M1650,272H1380V542C1380,392.88,1500.88,272,1650,272Z" transform="translate(0 0)"/><path id="_Path_3" data-name="&lt;Path&gt;" class="cls-2" d="M1650,272c149.12,0,270,120.88,270,270V272Z" transform="translate(0 0)"/><path id="_Path_4" data-name="&lt;Path&gt;" class="cls-2" d="M1380,542V812h270C1500.88,812,1380,691.12,1380,542Z" transform="translate(0 0)"/><path id="_Path_5" data-name="&lt;Path&gt;" class="cls-2" d="M1650,812h270V542C1920,691.12,1799.12,812,1650,812Z" transform="translate(0 0)"/></g><path id="_Path_6" data-name="&lt;Path&gt;" class="cls-2" d="M0,1082H0c298.23,0,540-241.77,540-540H0Z" transform="translate(0 0)"/></svg>