<svg id="Layer_1" data-name="Layer 1" xmlns="http://www.w3.org/2000/svg" viewBox="0 0 1920 1080"><defs><style>.cls-1{fill:#d4dbe4;}.cls-2{fill:#dce442;}</style></defs><title>bg-started</title><rect id="_Rectangle_" data-name="&lt;Rectangle&gt;" class="cls-1" width="1920" height="1080"/><path id="_Path_" data-name="&lt;Path&gt;" class="cls-2" d="M1380,540c0,298.23,241.77,540,540,540V0C1621.77,0,1380,241.78,1380,540Z" transform="translate(0 -0.01)"/><g id="_Group_" data-name="&lt;Group&gt;"><path id="_Path_2" data-name="&lt;Path&gt;" class="cls-2" d="M570,540H300V810C300,660.89,420.88,540,570,540Z" transform="translate(0 -0.01)"/><path id="_Path_3" data-name="&lt;Path&gt;" class="cls-2" d="M570,540c149.12,0,270,120.88,270,270V540Z" transform="translate(0 -0.01)"/><path id="_Path_4" data-name="&lt;Path&gt;" class="cls-2" d="M300,810v270H570C420.88,1080,300,959.13,300,810Z" transform="translate(0 -0.01)"/><path id="_Path_5" data-name="&lt;Path&gt;" class="cls-2" d="M570,1080H840V810C840,959.13,719.12,1080,570,1080Z" transform="translate(0 -0.01)"/></g></svg>