<svg id="Layer_1" data-name="Layer 1" xmlns="http://www.w3.org/2000/svg" viewBox="0 0 390 47.39"><defs><style>.cls-1{fill:#fff;}</style></defs><title>hello-logo-text</title><g id="_Group_" data-name="&lt;Group&gt;"><g id="_Group_2" data-name="&lt;Group&gt;"><path id="_Compound_Path_" data-name="&lt;Compound Path&gt;" class="cls-1" d="M102.92,11.74A13.76,13.76,0,1,0,116.67,25.5,13.76,13.76,0,0,0,102.92,11.74Zm0,22.16c-3.86,0-7-3.76-7-8.41s3.13-8.41,7-8.41,7,3.76,7,8.41S106.77,33.9,102.92,33.9Z" transform="translate(-3 -2.02)"/><path id="_Compound_Path_2" data-name="&lt;Compound Path&gt;" class="cls-1" d="M49.65,11.74c-9.15,0-12.8,7.41-12.8,13.76s3.65,13.76,12.8,13.76c5.82,0,9.84-2.59,12.12-7.78H55a6.69,6.69,0,0,1-5,2.17,6.12,6.12,0,0,1-6.3-6H62.08v-2.7a14.85,14.85,0,0,0-2.85-8.73C57.32,13.49,53.88,11.74,49.65,11.74ZM43.88,22.43a5.83,5.83,0,0,1,5.77-5.08q4.6,0,5.72,5.08Z" transform="translate(-3 -2.02)"/><rect id="_Path_" data-name="&lt;Path&gt;" class="cls-1" x="62.47" width="6.77" height="37.23"/><rect id="_Path_2" data-name="&lt;Path&gt;" class="cls-1" x="76.01" width="6.77" height="37.23"/><polygon id="_Path_3" data-name="&lt;Path&gt;" class="cls-1" points="23.69 15.23 6.77 15.23 6.77 0 0 0 0 37.23 6.77 37.23 6.77 22 23.69 22 23.69 37.23 30.46 37.23 30.46 0 23.69 0 23.69 15.23"/></g><g id="_Group_3" data-name="&lt;Group&gt;"><polygon id="_Path_4" data-name="&lt;Path&gt;" class="cls-1" points="135.38 29 124.03 0 120.14 0 120.14 37.23 123.08 37.23 123.08 5.05 134.46 33.77 136.3 33.77 147.67 5.05 147.67 37.23 150.6 37.23 150.6 0 146.72 0 135.38 29"/><path id="_Compound_Path_3" data-name="&lt;Compound Path&gt;" class="cls-1" d="M175.5,14.66a9.06,9.06,0,0,0-6.56-2.48c-4.76,0-8.42,2.69-9.22,6.74h2.89a6.34,6.34,0,0,1,6.33-4.26c4.24,0,6.47,2.35,6.47,6.79v1.47h-4.77c-7.77,0-12,3-12,8.48,0,5,2.93,7.84,8.05,7.84,3.74,0,6.5-1.49,8.2-4.43l.56-1v5.4h2.7V21.35A8.64,8.64,0,0,0,175.5,14.66Zm-.08,12.07c0,3.37-.89,5.91-2.65,7.56A8.16,8.16,0,0,1,167,36.77c-3.45,0-5.52-2-5.52-5.36,0-3.87,3.3-6,9.29-6h4.67Z" transform="translate(-3 -2.02)"/><path id="_Compound_Path_4" data-name="&lt;Compound Path&gt;" class="cls-1" d="M225.91,14.66a9.06,9.06,0,0,0-6.56-2.48c-4.76,0-8.42,2.69-9.22,6.74H213a6.34,6.34,0,0,1,6.33-4.26c4.24,0,6.47,2.35,6.47,6.79v1.47h-4.77c-7.77,0-12,3-12,8.48,0,5,2.94,7.84,8.05,7.84,3.74,0,6.5-1.49,8.2-4.43l.56-1v5.4h2.7V21.35A8.64,8.64,0,0,0,225.91,14.66Zm-.08,12.07c0,3.37-.89,5.91-2.65,7.56a8.15,8.15,0,0,1-5.79,2.48c-3.45,0-5.52-2-5.52-5.36,0-3.87,3.3-6,9.29-6h4.67Z" transform="translate(-3 -2.02)"/><path id="_Path_5" data-name="&lt;Path&gt;" class="cls-1" d="M393,14.72V12.18h-7.24V2H382.9V12.18h-7.24v2.53h7.24V31.39c0,5.07,2.31,7.86,6.51,7.86a11.24,11.24,0,0,0,3.59-.5V36.17a8.66,8.66,0,0,1-3.16.55c-2.71,0-4.09-1.61-4.09-4.79V14.72Z" transform="translate(-3 -2.02)"/><path id="_Compound_Path_5" data-name="&lt;Compound Path&gt;" class="cls-1" d="M247.15,34.77h-7c-3,0-3.65-1.57-3.65-2.9A3.76,3.76,0,0,1,239,28.5a8.94,8.94,0,0,0,11.84-13.2L253,14.1A11.35,11.35,0,0,0,251,12.18l-2.31,1.31a8.94,8.94,0,0,0-11.3,13.62h0s-3.59,1.18-3.59,4.77,2.4,4.4,2.4,4.4a5.92,5.92,0,0,0-3.05,4.92c0,3.74,1.7,8.21,10.94,8.21,7.32,0,10.89-2.77,10.89-8.45C255,36.74,252.51,34.77,247.15,34.77Zm-3.08-20.06a6.41,6.41,0,1,1-6.41,6.41A6.41,6.41,0,0,1,244.07,14.72ZM244.13,47c-5.58,0-8.3-1.8-8.3-5.49a4.67,4.67,0,0,1,2.66-4.58s1.77.17,2.72.17h5.57c2.91,0,5.6.52,5.6,4.3C252.37,43.94,250.94,47,244.13,47Z" transform="translate(-3 -2.02)"/><path id="_Compound_Path_6" data-name="&lt;Compound Path&gt;" class="cls-1" d="M337.51,12.18A10.46,10.46,0,0,0,329.12,16a14.68,14.68,0,0,0-3.23,9.71,14.76,14.76,0,0,0,3.23,9.76,10.31,10.31,0,0,0,8.39,3.78c5,0,8.17-2,10.77-7l-2.38-1.17c-2,4.06-4.39,5.64-8.39,5.64-9.16,0-8.76-11.35-8.76-11.35H349V24.23a12.19,12.19,0,0,0-3.22-8.73A10.78,10.78,0,0,0,337.51,12.18ZM328.9,22.93s1.14-8.27,8.62-8.27c8.28,0,8.7,8.27,8.7,8.27Z" transform="translate(-3 -2.02)"/><path id="_Path_6" data-name="&lt;Path&gt;" class="cls-1" d="M366.55,12.18c-6.89,0-9.65,7-9.65,7v-7h-2.75V39.25h2.75V27.61c0-3.89,1.32-12.89,9.11-12.89,3.89,0,5.87,2.21,5.87,6.57v18h2.75V20.85C374.63,15.42,371.61,12.18,366.55,12.18Z" transform="translate(-3 -2.02)"/><path id="_Path_7" data-name="&lt;Path&gt;" class="cls-1" d="M313.23,12.18c-6.5,0-9,7.17-9,7.17h0c-.27-2.58-1.56-7.17-7.32-7.17-6.5,0-9,7.17-9,7.17V12.18h-2.75V39.25H288V27.61c0-3.89,1.49-12.89,8.41-12.89,3.68,0,5.17,2,5.17,6.57v18h2.75V27.55c0-3.92,1.52-12.84,8.41-12.84,3.68,0,5.17,2,5.17,6.57v18h2.75V21.06S321.23,12.18,313.23,12.18Z" transform="translate(-3 -2.02)"/><path id="_Compound_Path_7" data-name="&lt;Compound Path&gt;" class="cls-1" d="M268.53,12.18A10.46,10.46,0,0,0,260.14,16a14.68,14.68,0,0,0-3.23,9.71,14.76,14.76,0,0,0,3.23,9.76,10.31,10.31,0,0,0,8.39,3.78c5,0,8.17-2,10.77-7l-2.38-1.17c-2,4.06-4.39,5.64-8.39,5.64-9.16,0-8.76-11.35-8.76-11.35H280V24.23a12.19,12.19,0,0,0-3.22-8.73A10.78,10.78,0,0,0,268.53,12.18Zm-8.61,10.75s1.14-8.27,8.61-8.27c8.28,0,8.7,8.27,8.7,8.27Z" transform="translate(-3 -2.02)"/><path id="_Path_8" data-name="&lt;Path&gt;" class="cls-1" d="M196.15,12.18c-6.81,0-9.65,7-9.65,7v-7h-2.75V39.25h2.75V27.61c0-3.89,1.34-12.89,9.11-12.89,3.89,0,5.87,2.21,5.87,6.57v18h2.75V20.85C204.23,15.42,201.21,12.18,196.15,12.18Z" transform="translate(-3 -2.02)"/></g></g></svg>