<svg id="Layer_1" data-name="Layer 1" xmlns="http://www.w3.org/2000/svg" viewBox="0 0 22 22"><defs><style>.cls-1{fill:#fff;}</style></defs><title>instagram</title><path class="cls-1" d="M11,2.77c2.94,0,3.28,0,4.44.06a6.13,6.13,0,0,1,2,.38A3.41,3.41,0,0,1,18.75,4a3.34,3.34,0,0,1,.82,1.26,6.06,6.06,0,0,1,.38,2C20,8.5,20,8.85,20,11.78s0,3.28-.06,4.44a6.07,6.07,0,0,1-.38,2,3.37,3.37,0,0,1-.82,1.26,3.41,3.41,0,0,1-1.26.82,6.12,6.12,0,0,1-2,.38c-1.16.05-1.51.06-4.44.06s-3.29,0-4.44-.06a6.12,6.12,0,0,1-2-.38,3.42,3.42,0,0,1-1.26-.82,3.41,3.41,0,0,1-.82-1.26,6.12,6.12,0,0,1-.38-2C2,15.07,2,14.72,2,11.78S2,8.5,2,7.34a6.11,6.11,0,0,1,.38-2A3.39,3.39,0,0,1,3.25,4a3.42,3.42,0,0,1,1.26-.82,6.13,6.13,0,0,1,2-.38c1.16-.05,1.51-.06,4.44-.06m0-2c-3,0-3.36,0-4.54.07a8,8,0,0,0-2.67.51A5.41,5.41,0,0,0,1.85,2.63,5.42,5.42,0,0,0,.58,4.58,8.14,8.14,0,0,0,.06,7.25C0,8.42,0,8.8,0,11.78s0,3.36.06,4.53A8.13,8.13,0,0,0,.58,19a5.4,5.4,0,0,0,1.27,1.95,5.41,5.41,0,0,0,1.95,1.27,8.11,8.11,0,0,0,2.67.51c1.18.06,1.55.07,4.54.07s3.36,0,4.53-.07a8.09,8.09,0,0,0,2.67-.51,5.43,5.43,0,0,0,1.95-1.27A5.35,5.35,0,0,0,21.42,19a8,8,0,0,0,.51-2.67c.05-1.17.07-1.55.07-4.53s0-3.36-.07-4.54a8,8,0,0,0-.51-2.67A5.62,5.62,0,0,0,18.2,1.36,8,8,0,0,0,15.53.85C14.36.8,14,.78,11,.78Z" transform="translate(0 -0.78)"/><path class="cls-1" d="M11,6.14a5.65,5.65,0,1,0,5.65,5.65A5.65,5.65,0,0,0,11,6.14Zm0,9.31a3.67,3.67,0,1,1,3.67-3.67A3.67,3.67,0,0,1,11,15.45Z" transform="translate(0 -0.78)"/><circle class="cls-1" cx="16.87" cy="5.13" r="1.32"/></svg>