<svg id="Layer_1" data-name="Layer 1" xmlns="http://www.w3.org/2000/svg" viewBox="0 0 22 22.14"><defs><style>.cls-1{fill:#fff;}</style></defs><title>linkedin</title><path class="cls-1" d="M11.83,10.57v0l0,0Z" transform="translate(0 -0.58)"/><path class="cls-1" d="M20.37.58H1.63A1.61,1.61,0,0,0,0,2.17v19a1.61,1.61,0,0,0,1.63,1.59H20.37A1.61,1.61,0,0,0,22,21.14v-19A1.61,1.61,0,0,0,20.37.58ZM6.67,19.12H3.35v-10H6.67ZM5,7.75H5A1.73,1.73,0,1,1,5,4.3,1.73,1.73,0,1,1,5,7.75ZM18.65,19.12H15.33V13.77c0-1.34-.48-2.26-1.68-2.26a1.82,1.82,0,0,0-1.71,1.22,2.27,2.27,0,0,0-.11.81v5.58H8.51s0-9.06,0-10h3.32v1.42a3.3,3.3,0,0,1,3-1.65c2.19,0,3.82,1.43,3.82,4.5Z" transform="translate(0 -0.58)"/></svg>