<svg id="Layer_1" data-name="Layer 1" xmlns="http://www.w3.org/2000/svg" viewBox="0 0 596 63.15"><defs><style>.cls-1{fill:#fff;}</style></defs><title>logo-footer</title><g id="_Group_" data-name="&lt;Group&gt;"><g id="_Group_2" data-name="&lt;Group&gt;"><path id="_Compound_Path_" data-name="&lt;Compound Path&gt;" class="cls-1" d="M218.42,19.42a18.33,18.33,0,1,0,18.33,18.33A18.33,18.33,0,0,0,218.42,19.42Zm0,29.53c-5.14,0-9.31-5-9.31-11.2s4.17-11.2,9.31-11.2,9.31,5,9.31,11.2S223.57,49,218.42,49Z" transform="translate(-8.97 -6.47)"/><path id="_Compound_Path_2" data-name="&lt;Compound Path&gt;" class="cls-1" d="M147.44,19.42c-12.2,0-17.06,9.87-17.06,18.33s4.86,18.33,17.06,18.33c7.75,0,13.11-3.45,16.15-10.36h-9a8.91,8.91,0,0,1-6.66,2.89,8.16,8.16,0,0,1-8.39-8H164V37a19.78,19.78,0,0,0-3.81-11.63C157.67,21.75,153.08,19.42,147.44,19.42Zm-7.68,14.24a7.77,7.77,0,0,1,7.68-6.77q6.13,0,7.61,6.77Z" transform="translate(-8.97 -6.47)"/><rect id="_Path_" data-name="&lt;Path&gt;" class="cls-1" x="159.55" width="9.02" height="49.61"/><rect id="_Path_2" data-name="&lt;Path&gt;" class="cls-1" x="177.59" width="9.02" height="49.61"/><polygon id="_Path_3" data-name="&lt;Path&gt;" class="cls-1" points="107.88 20.3 85.33 20.3 85.33 0 76.31 0 76.31 49.61 85.33 49.61 85.33 29.32 107.88 29.32 107.88 49.61 116.9 49.61 116.9 0 107.88 0 107.88 20.3"/></g><g id="_Group_3" data-name="&lt;Group&gt;"><path id="_Path_4" data-name="&lt;Path&gt;" class="cls-1" d="M35.24,44.41A14.59,14.59,0,0,1,20.65,29.82H9a26.26,26.26,0,0,0,52.53,0H49.83A14.59,14.59,0,0,1,35.24,44.41Z" transform="translate(-8.97 -6.47)"/><circle id="_Path_5" data-name="&lt;Path&gt;" class="cls-1" cx="5.84" cy="5.84" r="5.84"/><polygon id="_Path_6" data-name="&lt;Path&gt;" class="cls-1" points="46.69 0 46.69 0 46.69 0 40.86 5.84 40.86 5.84 40.86 5.84 40.86 11.67 52.53 11.67 52.53 5.84 46.69 0"/></g><g id="_Group_4" data-name="&lt;Group&gt;"><polygon id="_Path_7" data-name="&lt;Path&gt;" class="cls-1" points="256.7 38.65 241.59 0 236.41 0 236.41 49.61 240.32 49.61 240.32 6.73 255.47 45 257.93 45 273.08 6.73 273.08 49.61 277 49.61 277 0 271.81 0 256.7 38.65"/><path id="_Compound_Path_3" data-name="&lt;Compound Path&gt;" class="cls-1" d="M315.14,23.31A12.07,12.07,0,0,0,306.4,20c-6.34,0-11.22,3.59-12.29,9H298a8.45,8.45,0,0,1,8.44-5.67c5.64,0,8.63,3.13,8.63,9.05v2h-6.36c-10.35,0-16,4-16,11.3,0,6.64,3.91,10.45,10.73,10.45,5,0,8.66-2,10.93-5.9l.75-1.29v7.19h3.59V32.24C318.62,28.42,317.45,25.42,315.14,23.31ZM315,39.4c0,4.49-1.19,7.88-3.53,10.08a10.87,10.87,0,0,1-7.72,3.3c-4.6,0-7.35-2.67-7.35-7.14,0-5.15,4.4-8,12.39-8H315Z" transform="translate(-8.97 -6.47)"/><path id="_Compound_Path_4" data-name="&lt;Compound Path&gt;" class="cls-1" d="M382.31,23.31a12.06,12.06,0,0,0-8.73-3.3c-6.34,0-11.22,3.59-12.29,9h3.85a8.45,8.45,0,0,1,8.44-5.67c5.64,0,8.63,3.13,8.63,9.05v2h-6.36c-10.35,0-16.05,4-16.05,11.3,0,6.64,3.91,10.45,10.73,10.45,5,0,8.66-2,10.93-5.9l.75-1.29v7.19h3.59V32.24C385.8,28.42,384.63,25.42,382.31,23.31Zm-.11,16.08c0,4.49-1.19,7.88-3.53,10.08a10.87,10.87,0,0,1-7.72,3.3c-4.6,0-7.35-2.67-7.35-7.14,0-5.15,4.4-8,12.38-8h6.22Z" transform="translate(-8.97 -6.47)"/><path id="_Path_8" data-name="&lt;Path&gt;" class="cls-1" d="M605,23.39V20h-9.65V6.47h-3.81V20h-9.65v3.38h9.65V45.61c0,6.75,3.08,10.47,8.67,10.47a14.94,14.94,0,0,0,4.78-.66V52a11.53,11.53,0,0,1-4.21.74c-3.61,0-5.44-2.15-5.44-6.38V23.39Z" transform="translate(-8.97 -6.47)"/><path id="_Compound_Path_5" data-name="&lt;Compound Path&gt;" class="cls-1" d="M410.63,50.12h-9.36c-4,0-4.87-2.1-4.87-3.86,0-3.38,3.39-4.5,3.39-4.5a11.91,11.91,0,0,0,15.77-17.58l2.82-1.6A15.14,15.14,0,0,0,415.82,20l-3.08,1.75A11.91,11.91,0,0,0,397.67,39.9h0s-4.79,1.57-4.79,6.36,3.2,5.87,3.2,5.87S392,54.24,392,58.69c0,5,2.27,10.94,14.58,10.94,9.76,0,14.51-3.68,14.51-11.27C421.1,52.74,417.77,50.12,410.63,50.12Zm-4.1-26.73A8.54,8.54,0,1,1,398,31.93,8.54,8.54,0,0,1,406.52,23.39Zm.07,43c-7.44,0-11.06-2.39-11.06-7.31S399.08,53,399.08,53s2.35.23,3.62.23h7.42c3.88,0,7.46.69,7.46,5.73C417.58,62.34,415.67,66.39,406.59,66.39Z" transform="translate(-8.97 -6.47)"/><path id="_Compound_Path_6" data-name="&lt;Compound Path&gt;" class="cls-1" d="M531,20a13.93,13.93,0,0,0-11.18,5.1A19.56,19.56,0,0,0,515.55,38a19.67,19.67,0,0,0,4.3,13,13.73,13.73,0,0,0,11.18,5c6.71,0,10.89-2.69,14.35-9.27l-3.17-1.56c-2.69,5.41-5.85,7.52-11.18,7.52-12.2,0-11.68-15.13-11.68-15.13h26.95V36.06A16.24,16.24,0,0,0,542,24.43,14.37,14.37,0,0,0,531,20ZM519.56,34.34s1.52-11,11.48-11c11,0,11.59,11,11.59,11Z" transform="translate(-8.97 -6.47)"/><path id="_Path_9" data-name="&lt;Path&gt;" class="cls-1" d="M569.74,20c-9.18,0-12.86,9.39-12.86,9.39V20h-3.66V56.08h3.66V40.57c0-5.18,1.76-17.18,12.14-17.18,5.19,0,7.82,2.94,7.82,8.76V56.08h3.66V31.57C580.5,24.33,576.47,20,569.74,20Z" transform="translate(-8.97 -6.47)"/><path id="_Path_10" data-name="&lt;Path&gt;" class="cls-1" d="M498.68,20c-8.66,0-12,9.56-12,9.56h0c-.36-3.44-2.08-9.56-9.75-9.56C468.27,20,465,29.57,465,29.57V20h-3.66V56.08H465V40.57c0-5.18,2-17.18,11.21-17.18,4.9,0,6.88,2.62,6.88,8.76V56.08h3.66V40.5c0-5.22,2-17.11,11.2-17.11,4.9,0,6.88,2.62,6.88,8.76V56.08h3.66V31.84S509.34,20,498.68,20Z" transform="translate(-8.97 -6.47)"/><path id="_Compound_Path_7" data-name="&lt;Compound Path&gt;" class="cls-1" d="M439.11,20a13.93,13.93,0,0,0-11.18,5.1A19.56,19.56,0,0,0,423.63,38a19.67,19.67,0,0,0,4.3,13,13.73,13.73,0,0,0,11.18,5c6.71,0,10.89-2.69,14.35-9.27l-3.17-1.56c-2.69,5.41-5.85,7.52-11.18,7.52-12.2,0-11.68-15.13-11.68-15.13h26.95V36.06a16.24,16.24,0,0,0-4.29-11.63A14.37,14.37,0,0,0,439.11,20ZM427.63,34.34s1.52-11,11.48-11c11,0,11.59,11,11.59,11Z" transform="translate(-8.97 -6.47)"/><path id="_Path_11" data-name="&lt;Path&gt;" class="cls-1" d="M342.67,20c-9.07,0-12.86,9.39-12.86,9.39V20h-3.66V56.08h3.66V40.57c0-5.18,1.79-17.18,12.14-17.18,5.19,0,7.82,2.94,7.82,8.76V56.08h3.66V31.57C353.43,24.33,349.4,20,342.67,20Z" transform="translate(-8.97 -6.47)"/></g></g></svg>