<svg id="Layer_1" data-name="Layer 1" xmlns="http://www.w3.org/2000/svg" viewBox="0 0 540 1080"><defs><style>.cls-1{fill:#dfe3eb;}.cls-2{fill:#fff;}.cls-3{fill:#dce442;}</style></defs><title>say</title><rect id="_Rectangle_" data-name="&lt;Rectangle&gt;" class="cls-1" width="540" height="1079.99"/><path id="_Path_" data-name="&lt;Path&gt;" class="cls-2" d="M405,810a269.89,269.89,0,0,0,135,233.89V576.11A269.89,269.89,0,0,0,405,810Z" transform="translate(0 0)"/><g id="_Group_" data-name="&lt;Group&gt;"><path id="_Path_2" data-name="&lt;Path&gt;" class="cls-3" d="M135,540H405V270C405,419.12,284.08,540,135,540Z" transform="translate(0 0)"/><path id="_Path_3" data-name="&lt;Path&gt;" class="cls-3" d="M0,540H135A268.75,268.75,0,0,1,0,503.89Z" transform="translate(0 0)"/><path id="_Path_4" data-name="&lt;Path&gt;" class="cls-3" d="M135,0C284.08,0,405,120.87,405,270V0Z" transform="translate(0 0)"/><path id="_Path_5" data-name="&lt;Path&gt;" class="cls-3" d="M0,0V36.11A268.76,268.76,0,0,1,135,0Z" transform="translate(0 0)"/></g></svg>