<svg id="Layer_1" data-name="Layer 1" xmlns="http://www.w3.org/2000/svg" viewBox="0 0 22 17.88"><defs><style>.cls-1{fill:#fff;}</style></defs><title>twitter</title><path class="cls-1" d="M22.12,2.66a9,9,0,0,1-2.59.71,4.51,4.51,0,0,0,2-2.5A9,9,0,0,1,18.64,2a4.52,4.52,0,0,0-7.81,3.09,4.58,4.58,0,0,0,.12,1,12.82,12.82,0,0,1-9.3-4.72A4.52,4.52,0,0,0,3,7.4a4.52,4.52,0,0,1-2-.56v.06a4.51,4.51,0,0,0,3.62,4.42,4.58,4.58,0,0,1-1.19.16,4.52,4.52,0,0,1-.85-.08A4.52,4.52,0,0,0,6.8,14.53a9,9,0,0,1-5.61,1.93A8.9,8.9,0,0,1,.12,16.4a12.77,12.77,0,0,0,6.92,2A12.75,12.75,0,0,0,19.88,5.58c0-.2,0-.39,0-.59A9.11,9.11,0,0,0,22.12,2.66Z" transform="translate(-0.12 -0.55)"/></svg>